<svg aria-roledescription="er" role="graphics-document document" viewBox="0 0 223.546875 501.75" style="max-width: 223.547px; background-color: white;" class="erDiagram" xmlns:xlink="http://www.w3.org/1999/xlink" xmlns="http://www.w3.org/2000/svg" width="100%" id="my-svg"><style>#my-svg{font-family:"trebuchet ms",verdana,arial,sans-serif;font-size:16px;fill:#000000;}@keyframes edge-animation-frame{from{stroke-dashoffset:0;}}@keyframes dash{to{stroke-dashoffset:0;}}#my-svg .edge-animation-slow{stroke-dasharray:9,5!important;stroke-dashoffset:900;animation:dash 50s linear infinite;stroke-linecap:round;}#my-svg .edge-animation-fast{stroke-dasharray:9,5!important;stroke-dashoffset:900;animation:dash 20s linear infinite;stroke-linecap:round;}#my-svg .error-icon{fill:#552222;}#my-svg .error-text{fill:#552222;stroke:#552222;}#my-svg .edge-thickness-normal{stroke-width:1px;}#my-svg .edge-thickness-thick{stroke-width:3.5px;}#my-svg .edge-pattern-solid{stroke-dasharray:0;}#my-svg .edge-thickness-invisible{stroke-width:0;fill:none;}#my-svg .edge-pattern-dashed{stroke-dasharray:3;}#my-svg .edge-pattern-dotted{stroke-dasharray:2;}#my-svg .marker{fill:#000000;stroke:#000000;}#my-svg .marker.cross{stroke:#000000;}#my-svg svg{font-family:"trebuchet ms",verdana,arial,sans-serif;font-size:16px;}#my-svg p{margin:0;}#my-svg .entityBox{fill:#cde498;stroke:#13540c;}#my-svg .relationshipLabelBox{fill:hsl(78.1578947368, 58.4615384615%, 84.5098039216%);opacity:0.7;background-color:hsl(78.1578947368, 58.4615384615%, 84.5098039216%);}#my-svg .relationshipLabelBox rect{opacity:0.5;}#my-svg .labelBkg{background-color:rgba(224.6153846155, 238.5923076923, 192.4076923078, 0.5);}#my-svg .edgeLabel .label{fill:#13540c;font-size:14px;}#my-svg .label{font-family:"trebuchet ms",verdana,arial,sans-serif;color:#000000;}#my-svg .edge-pattern-dashed{stroke-dasharray:8,8;}#my-svg .node rect,#my-svg .node circle,#my-svg .node ellipse,#my-svg .node polygon{fill:#cde498;stroke:#13540c;stroke-width:1px;}#my-svg .relationshipLine{stroke:#000000;stroke-width:1;fill:none;}#my-svg .marker{fill:none!important;stroke:#000000!important;stroke-width:1;}#my-svg :root{--mermaid-font-family:"trebuchet ms",verdana,arial,sans-serif;}</style><g><defs><marker orient="auto" markerHeight="18" markerWidth="18" refY="9" refX="0" class="marker onlyOne er" id="my-svg_er-onlyOneStart"><path d="M9,0 L9,18 M15,0 L15,18"/></marker></defs><defs><marker orient="auto" markerHeight="18" markerWidth="18" refY="9" refX="18" class="marker onlyOne er" id="my-svg_er-onlyOneEnd"><path d="M3,0 L3,18 M9,0 L9,18"/></marker></defs><defs><marker orient="auto" markerHeight="18" markerWidth="30" refY="9" refX="0" class="marker zeroOrOne er" id="my-svg_er-zeroOrOneStart"><circle r="6" cy="9" cx="21" fill="white"/><path d="M9,0 L9,18"/></marker></defs><defs><marker orient="auto" markerHeight="18" markerWidth="30" refY="9" refX="30" class="marker zeroOrOne er" id="my-svg_er-zeroOrOneEnd"><circle r="6" cy="9" cx="9" fill="white"/><path d="M21,0 L21,18"/></marker></defs><defs><marker orient="auto" markerHeight="36" markerWidth="45" refY="18" refX="18" class="marker oneOrMore er" id="my-svg_er-oneOrMoreStart"><path d="M0,18 Q 18,0 36,18 Q 18,36 0,18 M42,9 L42,27"/></marker></defs><defs><marker orient="auto" markerHeight="36" markerWidth="45" refY="18" refX="27" class="marker oneOrMore er" id="my-svg_er-oneOrMoreEnd"><path d="M3,9 L3,27 M9,18 Q27,0 45,18 Q27,36 9,18"/></marker></defs><defs><marker orient="auto" markerHeight="36" markerWidth="57" refY="18" refX="18" class="marker zeroOrMore er" id="my-svg_er-zeroOrMoreStart"><circle r="6" cy="18" cx="48" fill="white"/><path d="M0,18 Q18,0 36,18 Q18,36 0,18"/></marker></defs><defs><marker orient="auto" markerHeight="36" markerWidth="57" refY="18" refX="39" class="marker zeroOrMore er" id="my-svg_er-zeroOrMoreEnd"><circle r="6" cy="18" cx="9" fill="white"/><path d="M21,18 Q39,0 57,18 Q39,36 21,18"/></marker></defs><g class="root"><g class="clusters"/><g class="edgePaths"><path marker-end="url(#my-svg_er-onlyOneEnd)" marker-start="url(#my-svg_er-zeroOrMoreStart)" style="" class="edge-thickness-normal edge-pattern-solid relationshipLine" id="id_entity-DailySchedule-0_entity-Schedule-1_0" d="M111.773,221.75L111.773,230.167C111.773,238.583,111.773,255.417,111.773,272.25C111.773,289.083,111.773,305.917,111.773,314.333L111.773,322.75"/></g><g class="edgeLabels"><g transform="translate(111.7734375, 272.25)" class="edgeLabel"><g transform="translate(-27.5546875, -10.5)" class="label"><foreignObject height="21" width="55.109375"><div style="display: table-cell; white-space: nowrap; line-height: 1.5; max-width: 200px; text-align: center;" class="labelBkg" xmlns="http://www.w3.org/1999/xhtml"><span class="edgeLabel"><p>schedule</p></span></div></foreignObject></g></g></g><g class="nodes"><g transform="translate(111.7734375, 114.875)" id="entity-DailySchedule-0" class="node default"><g style=""><path fill="#cde498" stroke-width="0" stroke="none" d="M-103.7734375 -106.875 L103.7734375 -106.875 L103.7734375 106.875 L-103.7734375 106.875"/><path stroke-dasharray="0 0" fill="none" stroke-width="1.3" stroke="#13540c" d="M-103.7734375 -106.875 C-39.59283312078183 -106.875, 24.587771258436334 -106.875, 103.7734375 -106.875 M-103.7734375 -106.875 C-33.372147442610014 -106.875, 37.02914261477997 -106.875, 103.7734375 -106.875 M103.7734375 -106.875 C103.7734375 -55.34879544987955, 103.7734375 -3.8225908997591063, 103.7734375 106.875 M103.7734375 -106.875 C103.7734375 -55.62965583238843, 103.7734375 -4.38431166477686, 103.7734375 106.875 M103.7734375 106.875 C54.73037262883915 106.875, 5.6873077576782975 106.875, -103.7734375 106.875 M103.7734375 106.875 C24.35388056092104 106.875, -55.06567637815792 106.875, -103.7734375 106.875 M-103.7734375 106.875 C-103.7734375 57.92478740795596, -103.7734375 8.974574815911922, -103.7734375 -106.875 M-103.7734375 106.875 C-103.7734375 54.35310986253772, -103.7734375 1.8312197250754423, -103.7734375 -106.875"/></g><g class="row-rect-odd" style=""><path fill="hsl(78.1578947368, 58.4615384615%, 100%)" stroke-width="0" stroke="none" d="M-103.7734375 -64.125 L103.7734375 -64.125 L103.7734375 -21.375 L-103.7734375 -21.375"/><path stroke-dasharray="0 0" fill="none" stroke-width="1.3" stroke="#13540c" d="M-103.7734375 -64.125 C-25.487365910340444 -64.125, 52.79870567931911 -64.125, 103.7734375 -64.125 M-103.7734375 -64.125 C-26.32805717044431 -64.125, 51.11732315911138 -64.125, 103.7734375 -64.125 M103.7734375 -64.125 C103.7734375 -49.0799326492881, 103.7734375 -34.0348652985762, 103.7734375 -21.375 M103.7734375 -64.125 C103.7734375 -50.83038856678047, 103.7734375 -37.53577713356094, 103.7734375 -21.375 M103.7734375 -21.375 C52.787231920883826 -21.375, 1.8010263417676526 -21.375, -103.7734375 -21.375 M103.7734375 -21.375 C20.9364513481041 -21.375, -61.9005348037918 -21.375, -103.7734375 -21.375 M-103.7734375 -21.375 C-103.7734375 -33.78745419026027, -103.7734375 -46.19990838052054, -103.7734375 -64.125 M-103.7734375 -21.375 C-103.7734375 -35.998288473101255, -103.7734375 -50.62157694620252, -103.7734375 -64.125"/></g><g class="row-rect-even" style=""><path fill="hsl(78.1578947368, 58.4615384615%, 94.5098039216%)" stroke-width="0" stroke="none" d="M-103.7734375 -21.375 L103.7734375 -21.375 L103.7734375 21.375 L-103.7734375 21.375"/><path stroke-dasharray="0 0" fill="none" stroke-width="1.3" stroke="#13540c" d="M-103.7734375 -21.375 C-51.31669013110352 -21.375, 1.1400572377929592 -21.375, 103.7734375 -21.375 M-103.7734375 -21.375 C-37.45752961656828 -21.375, 28.85837826686344 -21.375, 103.7734375 -21.375 M103.7734375 -21.375 C103.7734375 -7.1136271053334745, 103.7734375 7.147745789333051, 103.7734375 21.375 M103.7734375 -21.375 C103.7734375 -10.531697174425359, 103.7734375 0.3116056511492822, 103.7734375 21.375 M103.7734375 21.375 C36.953844910728904 21.375, -29.865747678542192 21.375, -103.7734375 21.375 M103.7734375 21.375 C31.718623916295712 21.375, -40.336189667408576 21.375, -103.7734375 21.375 M-103.7734375 21.375 C-103.7734375 6.962919041638303, -103.7734375 -7.449161916723394, -103.7734375 -21.375 M-103.7734375 21.375 C-103.7734375 10.05986509881506, -103.7734375 -1.255269802369881, -103.7734375 -21.375"/></g><g class="row-rect-odd" style=""><path fill="hsl(78.1578947368, 58.4615384615%, 100%)" stroke-width="0" stroke="none" d="M-103.7734375 21.375 L103.7734375 21.375 L103.7734375 64.125 L-103.7734375 64.125"/><path stroke-dasharray="0 0" fill="none" stroke-width="1.3" stroke="#13540c" d="M-103.7734375 21.375 C-43.14302125991888 21.375, 17.487394980162236 21.375, 103.7734375 21.375 M-103.7734375 21.375 C-25.93606814891335 21.375, 51.9013012021733 21.375, 103.7734375 21.375 M103.7734375 21.375 C103.7734375 32.18267339230421, 103.7734375 42.99034678460841, 103.7734375 64.125 M103.7734375 21.375 C103.7734375 37.09417303220293, 103.7734375 52.81334606440586, 103.7734375 64.125 M103.7734375 64.125 C48.03368940083349 64.125, -7.706058698333024 64.125, -103.7734375 64.125 M103.7734375 64.125 C35.25905875650062 64.125, -33.25531998699876 64.125, -103.7734375 64.125 M-103.7734375 64.125 C-103.7734375 51.37162704290575, -103.7734375 38.6182540858115, -103.7734375 21.375 M-103.7734375 64.125 C-103.7734375 48.788723573098636, -103.7734375 33.45244714619727, -103.7734375 21.375"/></g><g class="row-rect-even" style=""><path fill="hsl(78.1578947368, 58.4615384615%, 94.5098039216%)" stroke-width="0" stroke="none" d="M-103.7734375 64.125 L103.7734375 64.125 L103.7734375 106.875 L-103.7734375 106.875"/><path stroke-dasharray="0 0" fill="none" stroke-width="1.3" stroke="#13540c" d="M-103.7734375 64.125 C-44.86514835341571 64.125, 14.043140793168575 64.125, 103.7734375 64.125 M-103.7734375 64.125 C-43.24021385441826 64.125, 17.293009791163485 64.125, 103.7734375 64.125 M103.7734375 64.125 C103.7734375 77.2919632202054, 103.7734375 90.45892644041082, 103.7734375 106.875 M103.7734375 64.125 C103.7734375 77.27015893399657, 103.7734375 90.41531786799312, 103.7734375 106.875 M103.7734375 106.875 C21.57280045105314 106.875, -60.62783659789372 106.875, -103.7734375 106.875 M103.7734375 106.875 C21.94368616489851 106.875, -59.88606517020298 106.875, -103.7734375 106.875 M-103.7734375 106.875 C-103.7734375 96.0781949570004, -103.7734375 85.28138991400081, -103.7734375 64.125 M-103.7734375 106.875 C-103.7734375 92.0489738566686, -103.7734375 77.22294771333719, -103.7734375 64.125"/></g><g style="" transform="translate(-49.7890625, -97.5)" class="label name"><foreignObject height="24" width="99.578125"><div style="display: table-cell; white-space: nowrap; line-height: 1.5; max-width: 195px; text-align: start;" xmlns="http://www.w3.org/1999/xhtml"><span class="nodeLabel"><p>DailySchedule</p></span></div></foreignObject></g><g style="" transform="translate(-91.2734375, -54.75)" class="label attribute-type"><foreignObject height="24" width="19.546875"><div style="display: table-cell; white-space: nowrap; line-height: 1.5; max-width: 118px; text-align: start;" xmlns="http://www.w3.org/1999/xhtml"><span class="nodeLabel"><p>Int</p></span></div></foreignObject></g><g style="" transform="translate(-24.6796875, -54.75)" class="label attribute-name"><foreignObject height="24" width="13.484375"><div style="display: table-cell; white-space: nowrap; line-height: 1.5; max-width: 113px; text-align: start;" xmlns="http://www.w3.org/1999/xhtml"><span class="nodeLabel"><p>id</p></span></div></foreignObject></g><g style="" transform="translate(69.3046875, -54.75)" class="label attribute-keys"><foreignObject height="0" width="0"><div style="display: table-cell; white-space: nowrap; line-height: 1.5; max-width: 100px; text-align: start;" xmlns="http://www.w3.org/1999/xhtml"><span class="nodeLabel"></span></div></foreignObject></g><g style="" transform="translate(69.3046875, -54.75)" class="label attribute-comment"><foreignObject height="24" width="21.96875"><div style="display: table-cell; white-space: nowrap; line-height: 1.5; max-width: 122px; text-align: start;" xmlns="http://www.w3.org/1999/xhtml"><span class="nodeLabel"><p>🗝️</p></span></div></foreignObject></g><g style="" transform="translate(-91.2734375, -12)" class="label attribute-type"><foreignObject height="24" width="41.59375"><div style="display: table-cell; white-space: nowrap; line-height: 1.5; max-width: 139px; text-align: start;" xmlns="http://www.w3.org/1999/xhtml"><span class="nodeLabel"><p>String</p></span></div></foreignObject></g><g style="" transform="translate(-24.6796875, -12)" class="label attribute-name"><foreignObject height="24" width="25.21875"><div style="display: table-cell; white-space: nowrap; line-height: 1.5; max-width: 124px; text-align: start;" xmlns="http://www.w3.org/1999/xhtml"><span class="nodeLabel"><p>day</p></span></div></foreignObject></g><g style="" transform="translate(69.3046875, -12)" class="label attribute-keys"><foreignObject height="0" width="0"><div style="display: table-cell; white-space: nowrap; line-height: 1.5; max-width: 100px; text-align: start;" xmlns="http://www.w3.org/1999/xhtml"><span class="nodeLabel"></span></div></foreignObject></g><g style="" transform="translate(69.3046875, -12)" class="label attribute-comment"><foreignObject height="0" width="0"><div style="display: table-cell; white-space: nowrap; line-height: 1.5; max-width: 100px; text-align: start;" xmlns="http://www.w3.org/1999/xhtml"><span class="nodeLabel"></span></div></foreignObject></g><g style="" transform="translate(-91.2734375, 30.75)" class="label attribute-type"><foreignObject height="24" width="41.59375"><div style="display: table-cell; white-space: nowrap; line-height: 1.5; max-width: 139px; text-align: start;" xmlns="http://www.w3.org/1999/xhtml"><span class="nodeLabel"><p>String</p></span></div></foreignObject></g><g style="" transform="translate(-24.6796875, 30.75)" class="label attribute-name"><foreignObject height="24" width="68.984375"><div style="display: table-cell; white-space: nowrap; line-height: 1.5; max-width: 161px; text-align: start;" xmlns="http://www.w3.org/1999/xhtml"><span class="nodeLabel"><p>startTime</p></span></div></foreignObject></g><g style="" transform="translate(69.3046875, 30.75)" class="label attribute-keys"><foreignObject height="0" width="0"><div style="display: table-cell; white-space: nowrap; line-height: 1.5; max-width: 100px; text-align: start;" xmlns="http://www.w3.org/1999/xhtml"><span class="nodeLabel"></span></div></foreignObject></g><g style="" transform="translate(69.3046875, 30.75)" class="label attribute-comment"><foreignObject height="0" width="0"><div style="display: table-cell; white-space: nowrap; line-height: 1.5; max-width: 100px; text-align: start;" xmlns="http://www.w3.org/1999/xhtml"><span class="nodeLabel"></span></div></foreignObject></g><g style="" transform="translate(-91.2734375, 73.5)" class="label attribute-type"><foreignObject height="24" width="41.59375"><div style="display: table-cell; white-space: nowrap; line-height: 1.5; max-width: 139px; text-align: start;" xmlns="http://www.w3.org/1999/xhtml"><span class="nodeLabel"><p>String</p></span></div></foreignObject></g><g style="" transform="translate(-24.6796875, 73.5)" class="label attribute-name"><foreignObject height="24" width="61.578125"><div style="display: table-cell; white-space: nowrap; line-height: 1.5; max-width: 156px; text-align: start;" xmlns="http://www.w3.org/1999/xhtml"><span class="nodeLabel"><p>endTime</p></span></div></foreignObject></g><g style="" transform="translate(69.3046875, 73.5)" class="label attribute-keys"><foreignObject height="0" width="0"><div style="display: table-cell; white-space: nowrap; line-height: 1.5; max-width: 100px; text-align: start;" xmlns="http://www.w3.org/1999/xhtml"><span class="nodeLabel"></span></div></foreignObject></g><g style="" transform="translate(69.3046875, 73.5)" class="label attribute-comment"><foreignObject height="0" width="0"><div style="display: table-cell; white-space: nowrap; line-height: 1.5; max-width: 100px; text-align: start;" xmlns="http://www.w3.org/1999/xhtml"><span class="nodeLabel"></span></div></foreignObject></g><g class="divider"><path stroke-dasharray="0 0" fill="none" stroke-width="1.3" stroke="#13540c" d="M-103.7734375 -64.125 C-42.489618073305856 -64.125, 18.79420135338829 -64.125, 103.7734375 -64.125 M-103.7734375 -64.125 C-57.18003296417266 -64.125, -10.586628428345321 -64.125, 103.7734375 -64.125"/></g><g class="divider"><path stroke-dasharray="0 0" fill="none" stroke-width="1.3" stroke="#13540c" d="M-37.1796875 -64.125 C-37.1796875 -1.307004297806671, -37.1796875 61.51099140438666, -37.1796875 106.875 M-37.1796875 -64.125 C-37.1796875 -3.8377308433093162, -37.1796875 56.44953831338137, -37.1796875 106.875"/></g><g class="divider"><path stroke-dasharray="0 0" fill="none" stroke-width="1.3" stroke="#13540c" d="M56.8046875 -64.125 C56.8046875 -26.206179273783604, 56.8046875 11.712641452432791, 56.8046875 106.875 M56.8046875 -64.125 C56.8046875 -19.01028094931376, 56.8046875 26.10443810137248, 56.8046875 106.875"/></g><g class="divider"><path stroke-dasharray="0 0" fill="none" stroke-width="1.3" stroke="#13540c" d="M-103.7734375 -64.125 C-42.472374718824256 -64.125, 18.82868806235149 -64.125, 103.7734375 -64.125 M-103.7734375 -64.125 C-41.01144265931058 -64.125, 21.750552181378836 -64.125, 103.7734375 -64.125"/></g></g><g transform="translate(111.7734375, 408.25)" id="entity-Schedule-1" class="node default"><g style=""><path fill="#cde498" stroke-width="0" stroke="none" d="M-102.5625 -85.5 L102.5625 -85.5 L102.5625 85.5 L-102.5625 85.5"/><path stroke-dasharray="0 0" fill="none" stroke-width="1.3" stroke="#13540c" d="M-102.5625 -85.5 C-44.45058694013653 -85.5, 13.661326119726937 -85.5, 102.5625 -85.5 M-102.5625 -85.5 C-20.837386334134067 -85.5, 60.88772733173187 -85.5, 102.5625 -85.5 M102.5625 -85.5 C102.5625 -33.00912372392134, 102.5625 19.481752552157317, 102.5625 85.5 M102.5625 -85.5 C102.5625 -44.856683535931275, 102.5625 -4.2133670718625496, 102.5625 85.5 M102.5625 85.5 C42.3190016945123 85.5, -17.924496610975396 85.5, -102.5625 85.5 M102.5625 85.5 C47.85811780103816 85.5, -6.846264397923676 85.5, -102.5625 85.5 M-102.5625 85.5 C-102.5625 47.06538189538967, -102.5625 8.63076379077934, -102.5625 -85.5 M-102.5625 85.5 C-102.5625 51.05220077604799, -102.5625 16.60440155209598, -102.5625 -85.5"/></g><g class="row-rect-odd" style=""><path fill="hsl(78.1578947368, 58.4615384615%, 100%)" stroke-width="0" stroke="none" d="M-102.5625 -42.75 L102.5625 -42.75 L102.5625 0 L-102.5625 0"/><path stroke-dasharray="0 0" fill="none" stroke-width="1.3" stroke="#13540c" d="M-102.5625 -42.75 C-39.702529821478606 -42.75, 23.157440357042788 -42.75, 102.5625 -42.75 M-102.5625 -42.75 C-61.39500956059154 -42.75, -20.22751912118308 -42.75, 102.5625 -42.75 M102.5625 -42.75 C102.5625 -29.687933769048072, 102.5625 -16.62586753809614, 102.5625 0 M102.5625 -42.75 C102.5625 -31.089204287812695, 102.5625 -19.42840857562539, 102.5625 0 M102.5625 0 C37.95334377788947 0, -26.655812444221056 0, -102.5625 0 M102.5625 0 C34.91239679345354 0, -32.73770641309292 0, -102.5625 0 M-102.5625 0 C-102.5625 -16.25047259094418, -102.5625 -32.50094518188836, -102.5625 -42.75 M-102.5625 0 C-102.5625 -16.234002529922968, -102.5625 -32.468005059845936, -102.5625 -42.75"/></g><g class="row-rect-even" style=""><path fill="hsl(78.1578947368, 58.4615384615%, 94.5098039216%)" stroke-width="0" stroke="none" d="M-102.5625 0 L102.5625 0 L102.5625 42.75 L-102.5625 42.75"/><path stroke-dasharray="0 0" fill="none" stroke-width="1.3" stroke="#13540c" d="M-102.5625 0 C-30.723874002939098 0, 41.114751994121804 0, 102.5625 0 M-102.5625 0 C-35.11334010674234 0, 32.335819786515316 0, 102.5625 0 M102.5625 0 C102.5625 12.083493900975153, 102.5625 24.166987801950306, 102.5625 42.75 M102.5625 0 C102.5625 11.371742628398088, 102.5625 22.743485256796177, 102.5625 42.75 M102.5625 42.75 C35.27655033343507 42.75, -32.00939933312986 42.75, -102.5625 42.75 M102.5625 42.75 C33.816682519631044 42.75, -34.92913496073791 42.75, -102.5625 42.75 M-102.5625 42.75 C-102.5625 33.19205579457139, -102.5625 23.634111589142783, -102.5625 0 M-102.5625 42.75 C-102.5625 30.08330411226494, -102.5625 17.416608224529885, -102.5625 0"/></g><g class="row-rect-odd" style=""><path fill="hsl(78.1578947368, 58.4615384615%, 100%)" stroke-width="0" stroke="none" d="M-102.5625 42.75 L102.5625 42.75 L102.5625 85.5 L-102.5625 85.5"/><path stroke-dasharray="0 0" fill="none" stroke-width="1.3" stroke="#13540c" d="M-102.5625 42.75 C-48.864231957573 42.75, 4.834036084854006 42.75, 102.5625 42.75 M-102.5625 42.75 C-27.03896772887218 42.75, 48.48456454225564 42.75, 102.5625 42.75 M102.5625 42.75 C102.5625 58.1744806811974, 102.5625 73.5989613623948, 102.5625 85.5 M102.5625 42.75 C102.5625 56.54609653522083, 102.5625 70.34219307044167, 102.5625 85.5 M102.5625 85.5 C55.28839280030245 85.5, 8.014285600604893 85.5, -102.5625 85.5 M102.5625 85.5 C21.807802444103004 85.5, -58.94689511179399 85.5, -102.5625 85.5 M-102.5625 85.5 C-102.5625 71.19156078500465, -102.5625 56.883121570009294, -102.5625 42.75 M-102.5625 85.5 C-102.5625 68.4514835157362, -102.5625 51.4029670314724, -102.5625 42.75"/></g><g style="" transform="translate(-32.09375, -76.125)" class="label name"><foreignObject height="24" width="64.1875"><div style="display: table-cell; white-space: nowrap; line-height: 1.5; max-width: 159px; text-align: start;" xmlns="http://www.w3.org/1999/xhtml"><span class="nodeLabel"><p>Schedule</p></span></div></foreignObject></g><g style="" transform="translate(-90.0625, -33.375)" class="label attribute-type"><foreignObject height="24" width="19.546875"><div style="display: table-cell; white-space: nowrap; line-height: 1.5; max-width: 118px; text-align: start;" xmlns="http://www.w3.org/1999/xhtml"><span class="nodeLabel"><p>Int</p></span></div></foreignObject></g><g style="" transform="translate(-23.46875, -33.375)" class="label attribute-name"><foreignObject height="24" width="13.484375"><div style="display: table-cell; white-space: nowrap; line-height: 1.5; max-width: 113px; text-align: start;" xmlns="http://www.w3.org/1999/xhtml"><span class="nodeLabel"><p>id</p></span></div></foreignObject></g><g style="" transform="translate(68.09375, -33.375)" class="label attribute-keys"><foreignObject height="0" width="0"><div style="display: table-cell; white-space: nowrap; line-height: 1.5; max-width: 100px; text-align: start;" xmlns="http://www.w3.org/1999/xhtml"><span class="nodeLabel"></span></div></foreignObject></g><g style="" transform="translate(68.09375, -33.375)" class="label attribute-comment"><foreignObject height="24" width="21.96875"><div style="display: table-cell; white-space: nowrap; line-height: 1.5; max-width: 122px; text-align: start;" xmlns="http://www.w3.org/1999/xhtml"><span class="nodeLabel"><p>🗝️</p></span></div></foreignObject></g><g style="" transform="translate(-90.0625, 9.375)" class="label attribute-type"><foreignObject height="24" width="41.59375"><div style="display: table-cell; white-space: nowrap; line-height: 1.5; max-width: 139px; text-align: start;" xmlns="http://www.w3.org/1999/xhtml"><span class="nodeLabel"><p>String</p></span></div></foreignObject></g><g style="" transform="translate(-23.46875, 9.375)" class="label attribute-name"><foreignObject height="24" width="39.15625"><div style="display: table-cell; white-space: nowrap; line-height: 1.5; max-width: 136px; text-align: start;" xmlns="http://www.w3.org/1999/xhtml"><span class="nodeLabel"><p>name</p></span></div></foreignObject></g><g style="" transform="translate(68.09375, 9.375)" class="label attribute-keys"><foreignObject height="0" width="0"><div style="display: table-cell; white-space: nowrap; line-height: 1.5; max-width: 100px; text-align: start;" xmlns="http://www.w3.org/1999/xhtml"><span class="nodeLabel"></span></div></foreignObject></g><g style="" transform="translate(68.09375, 9.375)" class="label attribute-comment"><foreignObject height="0" width="0"><div style="display: table-cell; white-space: nowrap; line-height: 1.5; max-width: 100px; text-align: start;" xmlns="http://www.w3.org/1999/xhtml"><span class="nodeLabel"></span></div></foreignObject></g><g style="" transform="translate(-90.0625, 52.125)" class="label attribute-type"><foreignObject height="24" width="41.59375"><div style="display: table-cell; white-space: nowrap; line-height: 1.5; max-width: 139px; text-align: start;" xmlns="http://www.w3.org/1999/xhtml"><span class="nodeLabel"><p>String</p></span></div></foreignObject></g><g style="" transform="translate(-23.46875, 52.125)" class="label attribute-name"><foreignObject height="24" width="66.5625"><div style="display: table-cell; white-space: nowrap; line-height: 1.5; max-width: 160px; text-align: start;" xmlns="http://www.w3.org/1999/xhtml"><span class="nodeLabel"><p>timezone</p></span></div></foreignObject></g><g style="" transform="translate(68.09375, 52.125)" class="label attribute-keys"><foreignObject height="0" width="0"><div style="display: table-cell; white-space: nowrap; line-height: 1.5; max-width: 100px; text-align: start;" xmlns="http://www.w3.org/1999/xhtml"><span class="nodeLabel"></span></div></foreignObject></g><g style="" transform="translate(68.09375, 52.125)" class="label attribute-comment"><foreignObject height="0" width="0"><div style="display: table-cell; white-space: nowrap; line-height: 1.5; max-width: 100px; text-align: start;" xmlns="http://www.w3.org/1999/xhtml"><span class="nodeLabel"></span></div></foreignObject></g><g class="divider"><path stroke-dasharray="0 0" fill="none" stroke-width="1.3" stroke="#13540c" d="M-102.5625 -42.75 C-51.08012901766003 -42.75, 0.4022419646799449 -42.75, 102.5625 -42.75 M-102.5625 -42.75 C-28.115001509919452 -42.75, 46.332496980161096 -42.75, 102.5625 -42.75"/></g><g class="divider"><path stroke-dasharray="0 0" fill="none" stroke-width="1.3" stroke="#13540c" d="M-35.96875 -42.75 C-35.96875 2.6530146992413037, -35.96875 48.05602939848261, -35.96875 85.5 M-35.96875 -42.75 C-35.96875 0.6773978990097973, -35.96875 44.104795798019595, -35.96875 85.5"/></g><g class="divider"><path stroke-dasharray="0 0" fill="none" stroke-width="1.3" stroke="#13540c" d="M55.59375 -42.75 C55.59375 -9.639591014037904, 55.59375 23.47081797192419, 55.59375 85.5 M55.59375 -42.75 C55.59375 -7.631269911188788, 55.59375 27.487460177622424, 55.59375 85.5"/></g><g class="divider"><path stroke-dasharray="0 0" fill="none" stroke-width="1.3" stroke="#13540c" d="M-102.5625 -42.75 C-35.29989452928626 -42.75, 31.962710941427474 -42.75, 102.5625 -42.75 M-102.5625 -42.75 C-31.63661806918293 -42.75, 39.28926386163414 -42.75, 102.5625 -42.75"/></g></g></g></g></g></svg>