<svg aria-roledescription="er" role="graphics-document document" viewBox="0 0 277.765625 795.5" style="max-width: 277.766px; background-color: white;" class="erDiagram" xmlns:xlink="http://www.w3.org/1999/xlink" xmlns="http://www.w3.org/2000/svg" width="100%" id="my-svg"><style>#my-svg{font-family:"trebuchet ms",verdana,arial,sans-serif;font-size:16px;fill:#000000;}@keyframes edge-animation-frame{from{stroke-dashoffset:0;}}@keyframes dash{to{stroke-dashoffset:0;}}#my-svg .edge-animation-slow{stroke-dasharray:9,5!important;stroke-dashoffset:900;animation:dash 50s linear infinite;stroke-linecap:round;}#my-svg .edge-animation-fast{stroke-dasharray:9,5!important;stroke-dashoffset:900;animation:dash 20s linear infinite;stroke-linecap:round;}#my-svg .error-icon{fill:#552222;}#my-svg .error-text{fill:#552222;stroke:#552222;}#my-svg .edge-thickness-normal{stroke-width:1px;}#my-svg .edge-thickness-thick{stroke-width:3.5px;}#my-svg .edge-pattern-solid{stroke-dasharray:0;}#my-svg .edge-thickness-invisible{stroke-width:0;fill:none;}#my-svg .edge-pattern-dashed{stroke-dasharray:3;}#my-svg .edge-pattern-dotted{stroke-dasharray:2;}#my-svg .marker{fill:#000000;stroke:#000000;}#my-svg .marker.cross{stroke:#000000;}#my-svg svg{font-family:"trebuchet ms",verdana,arial,sans-serif;font-size:16px;}#my-svg p{margin:0;}#my-svg .entityBox{fill:#cde498;stroke:#13540c;}#my-svg .relationshipLabelBox{fill:hsl(78.1578947368, 58.4615384615%, 84.5098039216%);opacity:0.7;background-color:hsl(78.1578947368, 58.4615384615%, 84.5098039216%);}#my-svg .relationshipLabelBox rect{opacity:0.5;}#my-svg .labelBkg{background-color:rgba(224.6153846155, 238.5923076923, 192.4076923078, 0.5);}#my-svg .edgeLabel .label{fill:#13540c;font-size:14px;}#my-svg .label{font-family:"trebuchet ms",verdana,arial,sans-serif;color:#000000;}#my-svg .edge-pattern-dashed{stroke-dasharray:8,8;}#my-svg .node rect,#my-svg .node circle,#my-svg .node ellipse,#my-svg .node polygon{fill:#cde498;stroke:#13540c;stroke-width:1px;}#my-svg .relationshipLine{stroke:#000000;stroke-width:1;fill:none;}#my-svg .marker{fill:none!important;stroke:#000000!important;stroke-width:1;}#my-svg :root{--mermaid-font-family:"trebuchet ms",verdana,arial,sans-serif;}</style><g><defs><marker orient="auto" markerHeight="18" markerWidth="18" refY="9" refX="0" class="marker onlyOne er" id="my-svg_er-onlyOneStart"><path d="M9,0 L9,18 M15,0 L15,18"/></marker></defs><defs><marker orient="auto" markerHeight="18" markerWidth="18" refY="9" refX="18" class="marker onlyOne er" id="my-svg_er-onlyOneEnd"><path d="M3,0 L3,18 M9,0 L9,18"/></marker></defs><defs><marker orient="auto" markerHeight="18" markerWidth="30" refY="9" refX="0" class="marker zeroOrOne er" id="my-svg_er-zeroOrOneStart"><circle r="6" cy="9" cx="21" fill="white"/><path d="M9,0 L9,18"/></marker></defs><defs><marker orient="auto" markerHeight="18" markerWidth="30" refY="9" refX="30" class="marker zeroOrOne er" id="my-svg_er-zeroOrOneEnd"><circle r="6" cy="9" cx="9" fill="white"/><path d="M21,0 L21,18"/></marker></defs><defs><marker orient="auto" markerHeight="36" markerWidth="45" refY="18" refX="18" class="marker oneOrMore er" id="my-svg_er-oneOrMoreStart"><path d="M0,18 Q 18,0 36,18 Q 18,36 0,18 M42,9 L42,27"/></marker></defs><defs><marker orient="auto" markerHeight="36" markerWidth="45" refY="18" refX="27" class="marker oneOrMore er" id="my-svg_er-oneOrMoreEnd"><path d="M3,9 L3,27 M9,18 Q27,0 45,18 Q27,36 9,18"/></marker></defs><defs><marker orient="auto" markerHeight="36" markerWidth="57" refY="18" refX="18" class="marker zeroOrMore er" id="my-svg_er-zeroOrMoreStart"><circle r="6" cy="18" cx="48" fill="white"/><path d="M0,18 Q18,0 36,18 Q18,36 0,18"/></marker></defs><defs><marker orient="auto" markerHeight="36" markerWidth="57" refY="18" refX="39" class="marker zeroOrMore er" id="my-svg_er-zeroOrMoreEnd"><circle r="6" cy="18" cx="9" fill="white"/><path d="M21,18 Q39,0 57,18 Q39,36 21,18"/></marker></defs><g class="root"><g class="clusters"/><g class="edgePaths"><path marker-end="url(#my-svg_er-zeroOrMoreEnd)" marker-start="url(#my-svg_er-zeroOrMoreStart)" style="" class="edge-thickness-normal edge-pattern-solid relationshipLine" id="id_entity-Booking-1_entity-Event-2_0" d="M138.883,221.75L138.883,228.417C138.883,235.083,138.883,248.417,138.883,261.75C138.883,275.083,138.883,288.417,138.883,295.083L138.883,301.75"/><path marker-end="url(#my-svg_er-onlyOneEnd)" marker-start="url(#my-svg_er-zeroOrOneStart)" style="" class="edge-thickness-normal edge-pattern-solid relationshipLine" id="id_entity-Event-2_entity-Status-0_1" d="M138.883,515.5L138.883,523.917C138.883,532.333,138.883,549.167,138.883,566C138.883,582.833,138.883,599.667,138.883,608.083L138.883,616.5"/></g><g class="edgeLabels"><g class="edgeLabel"><g transform="translate(0, 0)" class="label"><foreignObject height="0" width="0"><div style="display: table-cell; white-space: nowrap; line-height: 1.5; max-width: 200px; text-align: center;" class="labelBkg" xmlns="http://www.w3.org/1999/xhtml"><span class="edgeLabel"></span></div></foreignObject></g></g><g transform="translate(138.8828125, 566)" class="edgeLabel"><g transform="translate(-38.5703125, -10.5)" class="label"><foreignObject height="21" width="77.140625"><div style="display: table-cell; white-space: nowrap; line-height: 1.5; max-width: 200px; text-align: center;" class="labelBkg" xmlns="http://www.w3.org/1999/xhtml"><span class="edgeLabel"><p>enum:status</p></span></div></foreignObject></g></g></g><g class="nodes"><g transform="translate(138.8828125, 702)" id="entity-Status-0" class="node default"><g style=""><path fill="#cde498" stroke-width="0" stroke="none" d="M-107.46875 -85.5 L107.46875 -85.5 L107.46875 85.5 L-107.46875 85.5"/><path stroke-dasharray="0 0" fill="none" stroke-width="1.3" stroke="#13540c" d="M-107.46875 -85.5 C-43.92261584324907 -85.5, 19.62351831350186 -85.5, 107.46875 -85.5 M-107.46875 -85.5 C-36.65250659479412 -85.5, 34.16373681041176 -85.5, 107.46875 -85.5 M107.46875 -85.5 C107.46875 -19.252209035581174, 107.46875 46.99558192883765, 107.46875 85.5 M107.46875 -85.5 C107.46875 -44.15683478464914, 107.46875 -2.813669569298284, 107.46875 85.5 M107.46875 85.5 C32.89971676406847 85.5, -41.669316471863056 85.5, -107.46875 85.5 M107.46875 85.5 C56.59982855490536 85.5, 5.730907109810715 85.5, -107.46875 85.5 M-107.46875 85.5 C-107.46875 38.022395377916695, -107.46875 -9.45520924416661, -107.46875 -85.5 M-107.46875 85.5 C-107.46875 24.35313627433679, -107.46875 -36.79372745132642, -107.46875 -85.5"/></g><g class="row-rect-odd" style=""><path fill="hsl(78.1578947368, 58.4615384615%, 100%)" stroke-width="0" stroke="none" d="M-107.46875 -42.75 L107.46875 -42.75 L107.46875 0 L-107.46875 0"/><path stroke-dasharray="0 0" fill="none" stroke-width="1.3" stroke="#13540c" d="M-107.46875 -42.75 C-33.613649584180536 -42.75, 40.24145083163893 -42.75, 107.46875 -42.75 M-107.46875 -42.75 C-61.58940919164174 -42.75, -15.710068383283485 -42.75, 107.46875 -42.75 M107.46875 -42.75 C107.46875 -27.513759251052704, 107.46875 -12.277518502105409, 107.46875 0 M107.46875 -42.75 C107.46875 -31.050544535542862, 107.46875 -19.35108907108572, 107.46875 0 M107.46875 0 C28.981939359077046 0, -49.50487128184591 0, -107.46875 0 M107.46875 0 C28.551222078099926 0, -50.36630584380015 0, -107.46875 0 M-107.46875 0 C-107.46875 -10.574930413397613, -107.46875 -21.149860826795226, -107.46875 -42.75 M-107.46875 0 C-107.46875 -13.503179982361148, -107.46875 -27.006359964722296, -107.46875 -42.75"/></g><g class="row-rect-even" style=""><path fill="hsl(78.1578947368, 58.4615384615%, 94.5098039216%)" stroke-width="0" stroke="none" d="M-107.46875 0 L107.46875 0 L107.46875 42.75 L-107.46875 42.75"/><path stroke-dasharray="0 0" fill="none" stroke-width="1.3" stroke="#13540c" d="M-107.46875 0 C-33.62652184002327 0, 40.215706319953455 0, 107.46875 0 M-107.46875 0 C-59.37983206228311 0, -11.290914124566214 0, 107.46875 0 M107.46875 0 C107.46875 9.425591576211664, 107.46875 18.851183152423328, 107.46875 42.75 M107.46875 0 C107.46875 11.044306583715825, 107.46875 22.08861316743165, 107.46875 42.75 M107.46875 42.75 C52.921206330830906 42.75, -1.626337338338189 42.75, -107.46875 42.75 M107.46875 42.75 C35.69307629198329 42.75, -36.08259741603342 42.75, -107.46875 42.75 M-107.46875 42.75 C-107.46875 27.48314019829197, -107.46875 12.21628039658394, -107.46875 0 M-107.46875 42.75 C-107.46875 32.27686513465939, -107.46875 21.80373026931877, -107.46875 0"/></g><g class="row-rect-odd" style=""><path fill="hsl(78.1578947368, 58.4615384615%, 100%)" stroke-width="0" stroke="none" d="M-107.46875 42.75 L107.46875 42.75 L107.46875 85.5 L-107.46875 85.5"/><path stroke-dasharray="0 0" fill="none" stroke-width="1.3" stroke="#13540c" d="M-107.46875 42.75 C-38.788683706516125 42.75, 29.89138258696775 42.75, 107.46875 42.75 M-107.46875 42.75 C-24.694088477970027 42.75, 58.080573044059946 42.75, 107.46875 42.75 M107.46875 42.75 C107.46875 56.67796926795634, 107.46875 70.60593853591268, 107.46875 85.5 M107.46875 42.75 C107.46875 58.851393703071636, 107.46875 74.95278740614327, 107.46875 85.5 M107.46875 85.5 C56.58810018717965 85.5, 5.707450374359297 85.5, -107.46875 85.5 M107.46875 85.5 C39.51116540139161 85.5, -28.446419197216784 85.5, -107.46875 85.5 M-107.46875 85.5 C-107.46875 69.9290691396121, -107.46875 54.3581382792242, -107.46875 42.75 M-107.46875 85.5 C-107.46875 75.5391439355995, -107.46875 65.57828787119901, -107.46875 42.75"/></g><g style="" transform="translate(-22.0078125, -76.125)" class="label name"><foreignObject height="24" width="44.015625"><div style="display: table-cell; white-space: nowrap; line-height: 1.5; max-width: 139px; text-align: start;" xmlns="http://www.w3.org/1999/xhtml"><span class="nodeLabel"><p>Status</p></span></div></foreignObject></g><g style="" transform="translate(-94.96875, -33.375)" class="label attribute-type"><foreignObject height="24" width="63"><div style="display: table-cell; white-space: nowrap; line-height: 1.5; max-width: 172px; text-align: start;" xmlns="http://www.w3.org/1999/xhtml"><span class="nodeLabel"><p>PENDING</p></span></div></foreignObject></g><g style="" transform="translate(12.5, -33.375)" class="label attribute-name"><foreignObject height="24" width="63"><div style="display: table-cell; white-space: nowrap; line-height: 1.5; max-width: 172px; text-align: start;" xmlns="http://www.w3.org/1999/xhtml"><span class="nodeLabel"><p>PENDING</p></span></div></foreignObject></g><g style="" transform="translate(119.96875, -33.375)" class="label attribute-keys"><foreignObject height="0" width="0"><div style="display: table-cell; white-space: nowrap; line-height: 1.5; max-width: 100px; text-align: start;" xmlns="http://www.w3.org/1999/xhtml"><span class="nodeLabel"></span></div></foreignObject></g><g style="" transform="translate(119.96875, -33.375)" class="label attribute-comment"><foreignObject height="0" width="0"><div style="display: table-cell; white-space: nowrap; line-height: 1.5; max-width: 100px; text-align: start;" xmlns="http://www.w3.org/1999/xhtml"><span class="nodeLabel"></span></div></foreignObject></g><g style="" transform="translate(-94.96875, 9.375)" class="label attribute-type"><foreignObject height="24" width="81.953125"><div style="display: table-cell; white-space: nowrap; line-height: 1.5; max-width: 196px; text-align: start;" xmlns="http://www.w3.org/1999/xhtml"><span class="nodeLabel"><p>CANCELLED</p></span></div></foreignObject></g><g style="" transform="translate(12.5, 9.375)" class="label attribute-name"><foreignObject height="24" width="81.953125"><div style="display: table-cell; white-space: nowrap; line-height: 1.5; max-width: 196px; text-align: start;" xmlns="http://www.w3.org/1999/xhtml"><span class="nodeLabel"><p>CANCELLED</p></span></div></foreignObject></g><g style="" transform="translate(119.96875, 9.375)" class="label attribute-keys"><foreignObject height="0" width="0"><div style="display: table-cell; white-space: nowrap; line-height: 1.5; max-width: 100px; text-align: start;" xmlns="http://www.w3.org/1999/xhtml"><span class="nodeLabel"></span></div></foreignObject></g><g style="" transform="translate(119.96875, 9.375)" class="label attribute-comment"><foreignObject height="0" width="0"><div style="display: table-cell; white-space: nowrap; line-height: 1.5; max-width: 100px; text-align: start;" xmlns="http://www.w3.org/1999/xhtml"><span class="nodeLabel"></span></div></foreignObject></g><g style="" transform="translate(-94.96875, 52.125)" class="label attribute-type"><foreignObject height="24" width="82.46875"><div style="display: table-cell; white-space: nowrap; line-height: 1.5; max-width: 195px; text-align: start;" xmlns="http://www.w3.org/1999/xhtml"><span class="nodeLabel"><p>CONFIRMED</p></span></div></foreignObject></g><g style="" transform="translate(12.5, 52.125)" class="label attribute-name"><foreignObject height="24" width="82.46875"><div style="display: table-cell; white-space: nowrap; line-height: 1.5; max-width: 195px; text-align: start;" xmlns="http://www.w3.org/1999/xhtml"><span class="nodeLabel"><p>CONFIRMED</p></span></div></foreignObject></g><g style="" transform="translate(119.96875, 52.125)" class="label attribute-keys"><foreignObject height="0" width="0"><div style="display: table-cell; white-space: nowrap; line-height: 1.5; max-width: 100px; text-align: start;" xmlns="http://www.w3.org/1999/xhtml"><span class="nodeLabel"></span></div></foreignObject></g><g style="" transform="translate(119.96875, 52.125)" class="label attribute-comment"><foreignObject height="0" width="0"><div style="display: table-cell; white-space: nowrap; line-height: 1.5; max-width: 100px; text-align: start;" xmlns="http://www.w3.org/1999/xhtml"><span class="nodeLabel"></span></div></foreignObject></g><g class="divider"><path stroke-dasharray="0 0" fill="none" stroke-width="1.3" stroke="#13540c" d="M-107.46875 -42.75 C-42.947281021419826 -42.75, 21.574187957160348 -42.75, 107.46875 -42.75 M-107.46875 -42.75 C-63.19768348852787 -42.75, -18.926616977055744 -42.75, 107.46875 -42.75"/></g><g class="divider"><path stroke-dasharray="0 0" fill="none" stroke-width="1.3" stroke="#13540c" d="M0 -42.75 C0 0.0801620258184812, 0 42.91032405163696, 0 85.5 M0 -42.75 C0 2.757770958722162, 0 48.265541917444324, 0 85.5"/></g><g class="divider"><path stroke-dasharray="0 0" fill="none" stroke-width="1.3" stroke="#13540c" d="M-107.46875 -42.75 C-58.847271679954964 -42.75, -10.225793359909929 -42.75, 107.46875 -42.75 M-107.46875 -42.75 C-23.422016899108584 -42.75, 60.62471620178283 -42.75, 107.46875 -42.75"/></g></g><g transform="translate(138.8828125, 114.875)" id="entity-Booking-1" class="node default"><g style=""><path fill="#cde498" stroke-width="0" stroke="none" d="M-130.8828125 -106.875 L130.8828125 -106.875 L130.8828125 106.875 L-130.8828125 106.875"/><path stroke-dasharray="0 0" fill="none" stroke-width="1.3" stroke="#13540c" d="M-130.8828125 -106.875 C-48.8199036012071 -106.875, 33.243005297585796 -106.875, 130.8828125 -106.875 M-130.8828125 -106.875 C-62.913892782682225 -106.875, 5.055026934635549 -106.875, 130.8828125 -106.875 M130.8828125 -106.875 C130.8828125 -63.65831733474901, 130.8828125 -20.441634669498015, 130.8828125 106.875 M130.8828125 -106.875 C130.8828125 -48.322103922556025, 130.8828125 10.23079215488795, 130.8828125 106.875 M130.8828125 106.875 C37.06181159992262 106.875, -56.75918930015476 106.875, -130.8828125 106.875 M130.8828125 106.875 C70.06612498791179 106.875, 9.24943747582357 106.875, -130.8828125 106.875 M-130.8828125 106.875 C-130.8828125 48.386080124509235, -130.8828125 -10.10283975098153, -130.8828125 -106.875 M-130.8828125 106.875 C-130.8828125 47.282895996782536, -130.8828125 -12.309208006434929, -130.8828125 -106.875"/></g><g class="row-rect-odd" style=""><path fill="hsl(78.1578947368, 58.4615384615%, 100%)" stroke-width="0" stroke="none" d="M-130.8828125 -64.125 L130.8828125 -64.125 L130.8828125 -21.375 L-130.8828125 -21.375"/><path stroke-dasharray="0 0" fill="none" stroke-width="1.3" stroke="#13540c" d="M-130.8828125 -64.125 C-74.32276035634055 -64.125, -17.76270821268112 -64.125, 130.8828125 -64.125 M-130.8828125 -64.125 C-70.89747475530484 -64.125, -10.912137010609683 -64.125, 130.8828125 -64.125 M130.8828125 -64.125 C130.8828125 -47.7809023651091, 130.8828125 -31.4368047302182, 130.8828125 -21.375 M130.8828125 -64.125 C130.8828125 -52.83409638536013, 130.8828125 -41.54319277072026, 130.8828125 -21.375 M130.8828125 -21.375 C28.815755064206854 -21.375, -73.25130237158629 -21.375, -130.8828125 -21.375 M130.8828125 -21.375 C39.75369317833642 -21.375, -51.37542614332716 -21.375, -130.8828125 -21.375 M-130.8828125 -21.375 C-130.8828125 -37.812755694138346, -130.8828125 -54.250511388276685, -130.8828125 -64.125 M-130.8828125 -21.375 C-130.8828125 -37.613066268719926, -130.8828125 -53.85113253743985, -130.8828125 -64.125"/></g><g class="row-rect-even" style=""><path fill="hsl(78.1578947368, 58.4615384615%, 94.5098039216%)" stroke-width="0" stroke="none" d="M-130.8828125 -21.375 L130.8828125 -21.375 L130.8828125 21.375 L-130.8828125 21.375"/><path stroke-dasharray="0 0" fill="none" stroke-width="1.3" stroke="#13540c" d="M-130.8828125 -21.375 C-65.66453130709372 -21.375, -0.44625011418744975 -21.375, 130.8828125 -21.375 M-130.8828125 -21.375 C-44.71496195368178 -21.375, 41.45288859263644 -21.375, 130.8828125 -21.375 M130.8828125 -21.375 C130.8828125 -9.290568097604956, 130.8828125 2.793863804790089, 130.8828125 21.375 M130.8828125 -21.375 C130.8828125 -6.378830074110089, 130.8828125 8.617339851779821, 130.8828125 21.375 M130.8828125 21.375 C48.81918288269952 21.375, -33.244446734600956 21.375, -130.8828125 21.375 M130.8828125 21.375 C68.18013993426317 21.375, 5.477467368526348 21.375, -130.8828125 21.375 M-130.8828125 21.375 C-130.8828125 10.732844361692743, -130.8828125 0.09068872338548672, -130.8828125 -21.375 M-130.8828125 21.375 C-130.8828125 6.308855031489356, -130.8828125 -8.757289937021287, -130.8828125 -21.375"/></g><g class="row-rect-odd" style=""><path fill="hsl(78.1578947368, 58.4615384615%, 100%)" stroke-width="0" stroke="none" d="M-130.8828125 21.375 L130.8828125 21.375 L130.8828125 64.125 L-130.8828125 64.125"/><path stroke-dasharray="0 0" fill="none" stroke-width="1.3" stroke="#13540c" d="M-130.8828125 21.375 C-30.655819357730593 21.375, 69.57117378453881 21.375, 130.8828125 21.375 M-130.8828125 21.375 C-49.584099370117 21.375, 31.714613759765996 21.375, 130.8828125 21.375 M130.8828125 21.375 C130.8828125 33.164484417283575, 130.8828125 44.95396883456715, 130.8828125 64.125 M130.8828125 21.375 C130.8828125 34.51960051499053, 130.8828125 47.66420102998105, 130.8828125 64.125 M130.8828125 64.125 C60.004799583971774 64.125, -10.873213332056451 64.125, -130.8828125 64.125 M130.8828125 64.125 C49.18281133978179 64.125, -32.517189820436414 64.125, -130.8828125 64.125 M-130.8828125 64.125 C-130.8828125 49.59211487834257, -130.8828125 35.05922975668514, -130.8828125 21.375 M-130.8828125 64.125 C-130.8828125 47.820035195446394, -130.8828125 31.515070390892788, -130.8828125 21.375"/></g><g class="row-rect-even" style=""><path fill="hsl(78.1578947368, 58.4615384615%, 94.5098039216%)" stroke-width="0" stroke="none" d="M-130.8828125 64.125 L130.8828125 64.125 L130.8828125 106.875 L-130.8828125 106.875"/><path stroke-dasharray="0 0" fill="none" stroke-width="1.3" stroke="#13540c" d="M-130.8828125 64.125 C-75.48384124315805 64.125, -20.084869986316107 64.125, 130.8828125 64.125 M-130.8828125 64.125 C-35.29371054045069 64.125, 60.29539141909862 64.125, 130.8828125 64.125 M130.8828125 64.125 C130.8828125 75.70886469059188, 130.8828125 87.29272938118376, 130.8828125 106.875 M130.8828125 64.125 C130.8828125 74.30937932171071, 130.8828125 84.49375864342142, 130.8828125 106.875 M130.8828125 106.875 C48.700378741420366 106.875, -33.48205501715927 106.875, -130.8828125 106.875 M130.8828125 106.875 C74.76644679721699 106.875, 18.650081094433986 106.875, -130.8828125 106.875 M-130.8828125 106.875 C-130.8828125 91.44817110209033, -130.8828125 76.02134220418067, -130.8828125 64.125 M-130.8828125 106.875 C-130.8828125 98.03466000542802, -130.8828125 89.19432001085605, -130.8828125 64.125"/></g><g style="" transform="translate(-27.8203125, -97.5)" class="label name"><foreignObject height="24" width="55.640625"><div style="display: table-cell; white-space: nowrap; line-height: 1.5; max-width: 156px; text-align: start;" xmlns="http://www.w3.org/1999/xhtml"><span class="nodeLabel"><p>Booking</p></span></div></foreignObject></g><g style="" transform="translate(-118.3828125, -54.75)" class="label attribute-type"><foreignObject height="24" width="19.546875"><div style="display: table-cell; white-space: nowrap; line-height: 1.5; max-width: 118px; text-align: start;" xmlns="http://www.w3.org/1999/xhtml"><span class="nodeLabel"><p>Int</p></span></div></foreignObject></g><g style="" transform="translate(-24.8984375, -54.75)" class="label attribute-name"><foreignObject height="24" width="13.484375"><div style="display: table-cell; white-space: nowrap; line-height: 1.5; max-width: 113px; text-align: start;" xmlns="http://www.w3.org/1999/xhtml"><span class="nodeLabel"><p>id</p></span></div></foreignObject></g><g style="" transform="translate(96.4140625, -54.75)" class="label attribute-keys"><foreignObject height="0" width="0"><div style="display: table-cell; white-space: nowrap; line-height: 1.5; max-width: 100px; text-align: start;" xmlns="http://www.w3.org/1999/xhtml"><span class="nodeLabel"></span></div></foreignObject></g><g style="" transform="translate(96.4140625, -54.75)" class="label attribute-comment"><foreignObject height="24" width="21.96875"><div style="display: table-cell; white-space: nowrap; line-height: 1.5; max-width: 122px; text-align: start;" xmlns="http://www.w3.org/1999/xhtml"><span class="nodeLabel"><p>🗝️</p></span></div></foreignObject></g><g style="" transform="translate(-118.3828125, -12)" class="label attribute-type"><foreignObject height="24" width="41.59375"><div style="display: table-cell; white-space: nowrap; line-height: 1.5; max-width: 139px; text-align: start;" xmlns="http://www.w3.org/1999/xhtml"><span class="nodeLabel"><p>String</p></span></div></foreignObject></g><g style="" transform="translate(-24.8984375, -12)" class="label attribute-name"><foreignObject height="24" width="89.046875"><div style="display: table-cell; white-space: nowrap; line-height: 1.5; max-width: 182px; text-align: start;" xmlns="http://www.w3.org/1999/xhtml"><span class="nodeLabel"><p>inviteeEmail</p></span></div></foreignObject></g><g style="" transform="translate(96.4140625, -12)" class="label attribute-keys"><foreignObject height="0" width="0"><div style="display: table-cell; white-space: nowrap; line-height: 1.5; max-width: 100px; text-align: start;" xmlns="http://www.w3.org/1999/xhtml"><span class="nodeLabel"></span></div></foreignObject></g><g style="" transform="translate(96.4140625, -12)" class="label attribute-comment"><foreignObject height="0" width="0"><div style="display: table-cell; white-space: nowrap; line-height: 1.5; max-width: 100px; text-align: start;" xmlns="http://www.w3.org/1999/xhtml"><span class="nodeLabel"></span></div></foreignObject></g><g style="" transform="translate(-118.3828125, 30.75)" class="label attribute-type"><foreignObject height="24" width="68.484375"><div style="display: table-cell; white-space: nowrap; line-height: 1.5; max-width: 164px; text-align: start;" xmlns="http://www.w3.org/1999/xhtml"><span class="nodeLabel"><p>DateTime</p></span></div></foreignObject></g><g style="" transform="translate(-24.8984375, 30.75)" class="label attribute-name"><foreignObject height="24" width="96.3125"><div style="display: table-cell; white-space: nowrap; line-height: 1.5; max-width: 190px; text-align: start;" xmlns="http://www.w3.org/1999/xhtml"><span class="nodeLabel"><p>startDateUTC</p></span></div></foreignObject></g><g style="" transform="translate(96.4140625, 30.75)" class="label attribute-keys"><foreignObject height="0" width="0"><div style="display: table-cell; white-space: nowrap; line-height: 1.5; max-width: 100px; text-align: start;" xmlns="http://www.w3.org/1999/xhtml"><span class="nodeLabel"></span></div></foreignObject></g><g style="" transform="translate(96.4140625, 30.75)" class="label attribute-comment"><foreignObject height="0" width="0"><div style="display: table-cell; white-space: nowrap; line-height: 1.5; max-width: 100px; text-align: start;" xmlns="http://www.w3.org/1999/xhtml"><span class="nodeLabel"></span></div></foreignObject></g><g style="" transform="translate(-118.3828125, 73.5)" class="label attribute-type"><foreignObject height="24" width="41.59375"><div style="display: table-cell; white-space: nowrap; line-height: 1.5; max-width: 139px; text-align: start;" xmlns="http://www.w3.org/1999/xhtml"><span class="nodeLabel"><p>String</p></span></div></foreignObject></g><g style="" transform="translate(-24.8984375, 73.5)" class="label attribute-name"><foreignObject height="24" width="82.234375"><div style="display: table-cell; white-space: nowrap; line-height: 1.5; max-width: 175px; text-align: start;" xmlns="http://www.w3.org/1999/xhtml"><span class="nodeLabel"><p>cancelCode</p></span></div></foreignObject></g><g style="" transform="translate(96.4140625, 73.5)" class="label attribute-keys"><foreignObject height="0" width="0"><div style="display: table-cell; white-space: nowrap; line-height: 1.5; max-width: 100px; text-align: start;" xmlns="http://www.w3.org/1999/xhtml"><span class="nodeLabel"></span></div></foreignObject></g><g style="" transform="translate(96.4140625, 73.5)" class="label attribute-comment"><foreignObject height="0" width="0"><div style="display: table-cell; white-space: nowrap; line-height: 1.5; max-width: 100px; text-align: start;" xmlns="http://www.w3.org/1999/xhtml"><span class="nodeLabel"></span></div></foreignObject></g><g class="divider"><path stroke-dasharray="0 0" fill="none" stroke-width="1.3" stroke="#13540c" d="M-130.8828125 -64.125 C-32.367569978083765 -64.125, 66.14767254383247 -64.125, 130.8828125 -64.125 M-130.8828125 -64.125 C-73.23511037195817 -64.125, -15.587408243916357 -64.125, 130.8828125 -64.125"/></g><g class="divider"><path stroke-dasharray="0 0" fill="none" stroke-width="1.3" stroke="#13540c" d="M-37.3984375 -64.125 C-37.3984375 -21.159251992557763, -37.3984375 21.806496014884473, -37.3984375 106.875 M-37.3984375 -64.125 C-37.3984375 -4.131110208331151, -37.3984375 55.8627795833377, -37.3984375 106.875"/></g><g class="divider"><path stroke-dasharray="0 0" fill="none" stroke-width="1.3" stroke="#13540c" d="M83.9140625 -64.125 C83.9140625 -7.933785564849671, 83.9140625 48.25742887030066, 83.9140625 106.875 M83.9140625 -64.125 C83.9140625 -12.447604444265586, 83.9140625 39.22979111146883, 83.9140625 106.875"/></g><g class="divider"><path stroke-dasharray="0 0" fill="none" stroke-width="1.3" stroke="#13540c" d="M-130.8828125 -64.125 C-73.534752846491 -64.125, -16.186693192982005 -64.125, 130.8828125 -64.125 M-130.8828125 -64.125 C-30.88474298282226 -64.125, 69.11332653435548 -64.125, 130.8828125 -64.125"/></g></g><g transform="translate(138.8828125, 408.625)" id="entity-Event-2" class="node default"><g style=""><path fill="#cde498" stroke-width="0" stroke="none" d="M-116.265625 -106.875 L116.265625 -106.875 L116.265625 106.875 L-116.265625 106.875"/><path stroke-dasharray="0 0" fill="none" stroke-width="1.3" stroke="#13540c" d="M-116.265625 -106.875 C-62.05501440481822 -106.875, -7.844403809636447 -106.875, 116.265625 -106.875 M-116.265625 -106.875 C-67.83085331735855 -106.875, -19.396081634717092 -106.875, 116.265625 -106.875 M116.265625 -106.875 C116.265625 -32.166307432620314, 116.265625 42.54238513475937, 116.265625 106.875 M116.265625 -106.875 C116.265625 -41.154766975576635, 116.265625 24.56546604884673, 116.265625 106.875 M116.265625 106.875 C35.84905940569932 106.875, -44.56750618860136 106.875, -116.265625 106.875 M116.265625 106.875 C30.553207558173256 106.875, -55.15920988365349 106.875, -116.265625 106.875 M-116.265625 106.875 C-116.265625 37.23396381302719, -116.265625 -32.407072373945624, -116.265625 -106.875 M-116.265625 106.875 C-116.265625 46.64671468577262, -116.265625 -13.581570628454756, -116.265625 -106.875"/></g><g class="row-rect-odd" style=""><path fill="hsl(78.1578947368, 58.4615384615%, 100%)" stroke-width="0" stroke="none" d="M-116.265625 -64.125 L116.265625 -64.125 L116.265625 -21.375 L-116.265625 -21.375"/><path stroke-dasharray="0 0" fill="none" stroke-width="1.3" stroke="#13540c" d="M-116.265625 -64.125 C-66.54972655910683 -64.125, -16.83382811821366 -64.125, 116.265625 -64.125 M-116.265625 -64.125 C-41.12055557045581 -64.125, 34.02451385908839 -64.125, 116.265625 -64.125 M116.265625 -64.125 C116.265625 -49.16450978001405, 116.265625 -34.2040195600281, 116.265625 -21.375 M116.265625 -64.125 C116.265625 -55.073150668602246, 116.265625 -46.02130133720449, 116.265625 -21.375 M116.265625 -21.375 C25.255222685941547 -21.375, -65.7551796281169 -21.375, -116.265625 -21.375 M116.265625 -21.375 C29.977275094561747 -21.375, -56.311074810876505 -21.375, -116.265625 -21.375 M-116.265625 -21.375 C-116.265625 -33.92125825898002, -116.265625 -46.467516517960036, -116.265625 -64.125 M-116.265625 -21.375 C-116.265625 -32.9393971873642, -116.265625 -44.5037943747284, -116.265625 -64.125"/></g><g class="row-rect-even" style=""><path fill="hsl(78.1578947368, 58.4615384615%, 94.5098039216%)" stroke-width="0" stroke="none" d="M-116.265625 -21.375 L116.265625 -21.375 L116.265625 21.375 L-116.265625 21.375"/><path stroke-dasharray="0 0" fill="none" stroke-width="1.3" stroke="#13540c" d="M-116.265625 -21.375 C-44.227109111993684 -21.375, 27.811406776012632 -21.375, 116.265625 -21.375 M-116.265625 -21.375 C-55.19576670398928 -21.375, 5.874091592021443 -21.375, 116.265625 -21.375 M116.265625 -21.375 C116.265625 -10.225191736150375, 116.265625 0.92461652769925, 116.265625 21.375 M116.265625 -21.375 C116.265625 -7.084551910296227, 116.265625 7.205896179407546, 116.265625 21.375 M116.265625 21.375 C50.24678754275271 21.375, -15.772049914494573 21.375, -116.265625 21.375 M116.265625 21.375 C56.47434082311841 21.375, -3.316943353763179 21.375, -116.265625 21.375 M-116.265625 21.375 C-116.265625 12.199963048226659, -116.265625 3.024926096453317, -116.265625 -21.375 M-116.265625 21.375 C-116.265625 6.662815526349307, -116.265625 -8.049368947301385, -116.265625 -21.375"/></g><g class="row-rect-odd" style=""><path fill="hsl(78.1578947368, 58.4615384615%, 100%)" stroke-width="0" stroke="none" d="M-116.265625 21.375 L116.265625 21.375 L116.265625 64.125 L-116.265625 64.125"/><path stroke-dasharray="0 0" fill="none" stroke-width="1.3" stroke="#13540c" d="M-116.265625 21.375 C-48.5906603731686 21.375, 19.084304253662793 21.375, 116.265625 21.375 M-116.265625 21.375 C-43.70992345427935 21.375, 28.845778091441304 21.375, 116.265625 21.375 M116.265625 21.375 C116.265625 38.1315280795911, 116.265625 54.8880561591822, 116.265625 64.125 M116.265625 21.375 C116.265625 32.31544369536475, 116.265625 43.2558873907295, 116.265625 64.125 M116.265625 64.125 C36.47543425514412 64.125, -43.314756489711755 64.125, -116.265625 64.125 M116.265625 64.125 C23.47938836346107 64.125, -69.30684827307786 64.125, -116.265625 64.125 M-116.265625 64.125 C-116.265625 50.13800832908403, -116.265625 36.15101665816806, -116.265625 21.375 M-116.265625 64.125 C-116.265625 48.73245518763664, -116.265625 33.33991037527328, -116.265625 21.375"/></g><g class="row-rect-even" style=""><path fill="hsl(78.1578947368, 58.4615384615%, 94.5098039216%)" stroke-width="0" stroke="none" d="M-116.265625 64.125 L116.265625 64.125 L116.265625 106.875 L-116.265625 106.875"/><path stroke-dasharray="0 0" fill="none" stroke-width="1.3" stroke="#13540c" d="M-116.265625 64.125 C-44.45598580699051 64.125, 27.353653386018976 64.125, 116.265625 64.125 M-116.265625 64.125 C-28.192786498446566 64.125, 59.88005200310687 64.125, 116.265625 64.125 M116.265625 64.125 C116.265625 74.83883611816375, 116.265625 85.55267223632752, 116.265625 106.875 M116.265625 64.125 C116.265625 79.12009092775322, 116.265625 94.11518185550644, 116.265625 106.875 M116.265625 106.875 C56.0969866860961 106.875, -4.071651627807796 106.875, -116.265625 106.875 M116.265625 106.875 C35.86349747776795 106.875, -44.5386300444641 106.875, -116.265625 106.875 M-116.265625 106.875 C-116.265625 96.81955790456477, -116.265625 86.76411580912954, -116.265625 64.125 M-116.265625 106.875 C-116.265625 92.9389730074393, -116.265625 79.0029460148786, -116.265625 64.125"/></g><g style="" transform="translate(-20.109375, -97.5)" class="label name"><foreignObject height="24" width="40.21875"><div style="display: table-cell; white-space: nowrap; line-height: 1.5; max-width: 139px; text-align: start;" xmlns="http://www.w3.org/1999/xhtml"><span class="nodeLabel"><p>Event</p></span></div></foreignObject></g><g style="" transform="translate(-103.765625, -54.75)" class="label attribute-type"><foreignObject height="24" width="19.546875"><div style="display: table-cell; white-space: nowrap; line-height: 1.5; max-width: 118px; text-align: start;" xmlns="http://www.w3.org/1999/xhtml"><span class="nodeLabel"><p>Int</p></span></div></foreignObject></g><g style="" transform="translate(-10.28125, -54.75)" class="label attribute-name"><foreignObject height="24" width="13.484375"><div style="display: table-cell; white-space: nowrap; line-height: 1.5; max-width: 113px; text-align: start;" xmlns="http://www.w3.org/1999/xhtml"><span class="nodeLabel"><p>id</p></span></div></foreignObject></g><g style="" transform="translate(81.796875, -54.75)" class="label attribute-keys"><foreignObject height="0" width="0"><div style="display: table-cell; white-space: nowrap; line-height: 1.5; max-width: 100px; text-align: start;" xmlns="http://www.w3.org/1999/xhtml"><span class="nodeLabel"></span></div></foreignObject></g><g style="" transform="translate(81.796875, -54.75)" class="label attribute-comment"><foreignObject height="24" width="21.96875"><div style="display: table-cell; white-space: nowrap; line-height: 1.5; max-width: 122px; text-align: start;" xmlns="http://www.w3.org/1999/xhtml"><span class="nodeLabel"><p>🗝️</p></span></div></foreignObject></g><g style="" transform="translate(-103.765625, -12)" class="label attribute-type"><foreignObject height="24" width="41.59375"><div style="display: table-cell; white-space: nowrap; line-height: 1.5; max-width: 139px; text-align: start;" xmlns="http://www.w3.org/1999/xhtml"><span class="nodeLabel"><p>String</p></span></div></foreignObject></g><g style="" transform="translate(-10.28125, -12)" class="label attribute-name"><foreignObject height="24" width="39.15625"><div style="display: table-cell; white-space: nowrap; line-height: 1.5; max-width: 136px; text-align: start;" xmlns="http://www.w3.org/1999/xhtml"><span class="nodeLabel"><p>name</p></span></div></foreignObject></g><g style="" transform="translate(81.796875, -12)" class="label attribute-keys"><foreignObject height="0" width="0"><div style="display: table-cell; white-space: nowrap; line-height: 1.5; max-width: 100px; text-align: start;" xmlns="http://www.w3.org/1999/xhtml"><span class="nodeLabel"></span></div></foreignObject></g><g style="" transform="translate(81.796875, -12)" class="label attribute-comment"><foreignObject height="0" width="0"><div style="display: table-cell; white-space: nowrap; line-height: 1.5; max-width: 100px; text-align: start;" xmlns="http://www.w3.org/1999/xhtml"><span class="nodeLabel"></span></div></foreignObject></g><g style="" transform="translate(-103.765625, 30.75)" class="label attribute-type"><foreignObject height="24" width="68.484375"><div style="display: table-cell; white-space: nowrap; line-height: 1.5; max-width: 164px; text-align: start;" xmlns="http://www.w3.org/1999/xhtml"><span class="nodeLabel"><p>DateTime</p></span></div></foreignObject></g><g style="" transform="translate(-10.28125, 30.75)" class="label attribute-name"><foreignObject height="24" width="67.078125"><div style="display: table-cell; white-space: nowrap; line-height: 1.5; max-width: 158px; text-align: start;" xmlns="http://www.w3.org/1999/xhtml"><span class="nodeLabel"><p>startDate</p></span></div></foreignObject></g><g style="" transform="translate(81.796875, 30.75)" class="label attribute-keys"><foreignObject height="0" width="0"><div style="display: table-cell; white-space: nowrap; line-height: 1.5; max-width: 100px; text-align: start;" xmlns="http://www.w3.org/1999/xhtml"><span class="nodeLabel"></span></div></foreignObject></g><g style="" transform="translate(81.796875, 30.75)" class="label attribute-comment"><foreignObject height="0" width="0"><div style="display: table-cell; white-space: nowrap; line-height: 1.5; max-width: 100px; text-align: start;" xmlns="http://www.w3.org/1999/xhtml"><span class="nodeLabel"></span></div></foreignObject></g><g style="" transform="translate(-103.765625, 73.5)" class="label attribute-type"><foreignObject height="24" width="44.015625"><div style="display: table-cell; white-space: nowrap; line-height: 1.5; max-width: 139px; text-align: start;" xmlns="http://www.w3.org/1999/xhtml"><span class="nodeLabel"><p>Status</p></span></div></foreignObject></g><g style="" transform="translate(-10.28125, 73.5)" class="label attribute-name"><foreignObject height="24" width="42.796875"><div style="display: table-cell; white-space: nowrap; line-height: 1.5; max-width: 136px; text-align: start;" xmlns="http://www.w3.org/1999/xhtml"><span class="nodeLabel"><p>status</p></span></div></foreignObject></g><g style="" transform="translate(81.796875, 73.5)" class="label attribute-keys"><foreignObject height="0" width="0"><div style="display: table-cell; white-space: nowrap; line-height: 1.5; max-width: 100px; text-align: start;" xmlns="http://www.w3.org/1999/xhtml"><span class="nodeLabel"></span></div></foreignObject></g><g style="" transform="translate(81.796875, 73.5)" class="label attribute-comment"><foreignObject height="0" width="0"><div style="display: table-cell; white-space: nowrap; line-height: 1.5; max-width: 100px; text-align: start;" xmlns="http://www.w3.org/1999/xhtml"><span class="nodeLabel"></span></div></foreignObject></g><g class="divider"><path stroke-dasharray="0 0" fill="none" stroke-width="1.3" stroke="#13540c" d="M-116.265625 -64.125 C-63.455354672734195 -64.125, -10.64508434546839 -64.125, 116.265625 -64.125 M-116.265625 -64.125 C-57.86323607507027 -64.125, 0.5391528498594624 -64.125, 116.265625 -64.125"/></g><g class="divider"><path stroke-dasharray="0 0" fill="none" stroke-width="1.3" stroke="#13540c" d="M-22.78125 -64.125 C-22.78125 -20.12557307903274, -22.78125 23.87385384193452, -22.78125 106.875 M-22.78125 -64.125 C-22.78125 -27.557585672588573, -22.78125 9.009828654822854, -22.78125 106.875"/></g><g class="divider"><path stroke-dasharray="0 0" fill="none" stroke-width="1.3" stroke="#13540c" d="M69.296875 -64.125 C69.296875 1.315989639077813, 69.296875 66.75697927815563, 69.296875 106.875 M69.296875 -64.125 C69.296875 3.340893820401604, 69.296875 70.80678764080321, 69.296875 106.875"/></g><g class="divider"><path stroke-dasharray="0 0" fill="none" stroke-width="1.3" stroke="#13540c" d="M-116.265625 -64.125 C-43.77474179237326 -64.125, 28.716141415253475 -64.125, 116.265625 -64.125 M-116.265625 -64.125 C-45.287575886876 -64.125, 25.690473226248002 -64.125, 116.265625 -64.125"/></g></g></g></g></g></svg>