<svg aria-roledescription="er" role="graphics-document document" viewBox="0 0 193.71875 373.5" style="max-width: 193.719px; background-color: white;" class="erDiagram" xmlns:xlink="http://www.w3.org/1999/xlink" xmlns="http://www.w3.org/2000/svg" width="100%" id="my-svg"><style>#my-svg{font-family:"trebuchet ms",verdana,arial,sans-serif;font-size:16px;fill:#000000;}@keyframes edge-animation-frame{from{stroke-dashoffset:0;}}@keyframes dash{to{stroke-dashoffset:0;}}#my-svg .edge-animation-slow{stroke-dasharray:9,5!important;stroke-dashoffset:900;animation:dash 50s linear infinite;stroke-linecap:round;}#my-svg .edge-animation-fast{stroke-dasharray:9,5!important;stroke-dashoffset:900;animation:dash 20s linear infinite;stroke-linecap:round;}#my-svg .error-icon{fill:#552222;}#my-svg .error-text{fill:#552222;stroke:#552222;}#my-svg .edge-thickness-normal{stroke-width:1px;}#my-svg .edge-thickness-thick{stroke-width:3.5px;}#my-svg .edge-pattern-solid{stroke-dasharray:0;}#my-svg .edge-thickness-invisible{stroke-width:0;fill:none;}#my-svg .edge-pattern-dashed{stroke-dasharray:3;}#my-svg .edge-pattern-dotted{stroke-dasharray:2;}#my-svg .marker{fill:#000000;stroke:#000000;}#my-svg .marker.cross{stroke:#000000;}#my-svg svg{font-family:"trebuchet ms",verdana,arial,sans-serif;font-size:16px;}#my-svg p{margin:0;}#my-svg .entityBox{fill:#cde498;stroke:#13540c;}#my-svg .relationshipLabelBox{fill:hsl(78.1578947368, 58.4615384615%, 84.5098039216%);opacity:0.7;background-color:hsl(78.1578947368, 58.4615384615%, 84.5098039216%);}#my-svg .relationshipLabelBox rect{opacity:0.5;}#my-svg .labelBkg{background-color:rgba(224.6153846155, 238.5923076923, 192.4076923078, 0.5);}#my-svg .edgeLabel .label{fill:#13540c;font-size:14px;}#my-svg .label{font-family:"trebuchet ms",verdana,arial,sans-serif;color:#000000;}#my-svg .edge-pattern-dashed{stroke-dasharray:8,8;}#my-svg .node rect,#my-svg .node circle,#my-svg .node ellipse,#my-svg .node polygon{fill:#cde498;stroke:#13540c;stroke-width:1px;}#my-svg .relationshipLine{stroke:#000000;stroke-width:1;fill:none;}#my-svg .marker{fill:none!important;stroke:#000000!important;stroke-width:1;}#my-svg :root{--mermaid-font-family:"trebuchet ms",verdana,arial,sans-serif;}</style><g><defs><marker orient="auto" markerHeight="18" markerWidth="18" refY="9" refX="0" class="marker onlyOne er" id="my-svg_er-onlyOneStart"><path d="M9,0 L9,18 M15,0 L15,18"/></marker></defs><defs><marker orient="auto" markerHeight="18" markerWidth="18" refY="9" refX="18" class="marker onlyOne er" id="my-svg_er-onlyOneEnd"><path d="M3,0 L3,18 M9,0 L9,18"/></marker></defs><defs><marker orient="auto" markerHeight="18" markerWidth="30" refY="9" refX="0" class="marker zeroOrOne er" id="my-svg_er-zeroOrOneStart"><circle r="6" cy="9" cx="21" fill="white"/><path d="M9,0 L9,18"/></marker></defs><defs><marker orient="auto" markerHeight="18" markerWidth="30" refY="9" refX="30" class="marker zeroOrOne er" id="my-svg_er-zeroOrOneEnd"><circle r="6" cy="9" cx="9" fill="white"/><path d="M21,0 L21,18"/></marker></defs><defs><marker orient="auto" markerHeight="36" markerWidth="45" refY="18" refX="18" class="marker oneOrMore er" id="my-svg_er-oneOrMoreStart"><path d="M0,18 Q 18,0 36,18 Q 18,36 0,18 M42,9 L42,27"/></marker></defs><defs><marker orient="auto" markerHeight="36" markerWidth="45" refY="18" refX="27" class="marker oneOrMore er" id="my-svg_er-oneOrMoreEnd"><path d="M3,9 L3,27 M9,18 Q27,0 45,18 Q27,36 9,18"/></marker></defs><defs><marker orient="auto" markerHeight="36" markerWidth="57" refY="18" refX="18" class="marker zeroOrMore er" id="my-svg_er-zeroOrMoreStart"><circle r="6" cy="18" cx="48" fill="white"/><path d="M0,18 Q18,0 36,18 Q18,36 0,18"/></marker></defs><defs><marker orient="auto" markerHeight="36" markerWidth="57" refY="18" refX="39" class="marker zeroOrMore er" id="my-svg_er-zeroOrMoreEnd"><circle r="6" cy="18" cx="9" fill="white"/><path d="M21,18 Q39,0 57,18 Q39,36 21,18"/></marker></defs><g class="root"><g class="clusters"/><g class="edgePaths"><path marker-end="url(#my-svg_er-onlyOneEnd)" marker-start="url(#my-svg_er-zeroOrMoreStart)" style="" class="edge-thickness-normal edge-pattern-solid relationshipLine" id="id_entity-Product-0_entity-Foo-1_0" d="M96.859,136.25L96.859,144.667C96.859,153.083,96.859,169.917,96.859,186.75C96.859,203.583,96.859,220.417,96.859,228.833L96.859,237.25"/></g><g class="edgeLabels"><g transform="translate(96.859375, 186.75)" class="edgeLabel"><g transform="translate(-10.1015625, -10.5)" class="label"><foreignObject height="21" width="20.203125"><div style="display: table-cell; white-space: nowrap; line-height: 1.5; max-width: 200px; text-align: center;" class="labelBkg" xmlns="http://www.w3.org/1999/xhtml"><span class="edgeLabel"><p>foo</p></span></div></foreignObject></g></g></g><g class="nodes"><g transform="translate(96.859375, 72.125)" id="entity-Product-0" class="node default"><g style=""><path fill="#cde498" stroke-width="0" stroke="none" d="M-88.859375 -64.125 L88.859375 -64.125 L88.859375 64.125 L-88.859375 64.125"/><path stroke-dasharray="0 0" fill="none" stroke-width="1.3" stroke="#13540c" d="M-88.859375 -64.125 C-49.90461376152234 -64.125, -10.949852523044683 -64.125, 88.859375 -64.125 M-88.859375 -64.125 C-35.3483178714535 -64.125, 18.162739257092994 -64.125, 88.859375 -64.125 M88.859375 -64.125 C88.859375 -29.94790049256609, 88.859375 4.229199014867817, 88.859375 64.125 M88.859375 -64.125 C88.859375 -35.1784363304116, 88.859375 -6.2318726608232, 88.859375 64.125 M88.859375 64.125 C50.62036002054504 64.125, 12.381345041090086 64.125, -88.859375 64.125 M88.859375 64.125 C46.112645021605886 64.125, 3.3659150432117713 64.125, -88.859375 64.125 M-88.859375 64.125 C-88.859375 38.05609939635797, -88.859375 11.987198792715944, -88.859375 -64.125 M-88.859375 64.125 C-88.859375 13.642539907347775, -88.859375 -36.83992018530445, -88.859375 -64.125"/></g><g class="row-rect-odd" style=""><path fill="hsl(78.1578947368, 58.4615384615%, 100%)" stroke-width="0" stroke="none" d="M-88.859375 -21.375 L88.859375 -21.375 L88.859375 21.375 L-88.859375 21.375"/><path stroke-dasharray="0 0" fill="none" stroke-width="1.3" stroke="#13540c" d="M-88.859375 -21.375 C-45.94479779487596 -21.375, -3.03022058975192 -21.375, 88.859375 -21.375 M-88.859375 -21.375 C-18.74937480360569 -21.375, 51.36062539278862 -21.375, 88.859375 -21.375 M88.859375 -21.375 C88.859375 -8.468972762974992, 88.859375 4.437054474050015, 88.859375 21.375 M88.859375 -21.375 C88.859375 -12.652996610216334, 88.859375 -3.9309932204326685, 88.859375 21.375 M88.859375 21.375 C43.22085153387262 21.375, -2.4176719322547626 21.375, -88.859375 21.375 M88.859375 21.375 C42.12731133457466 21.375, -4.604752330850687 21.375, -88.859375 21.375 M-88.859375 21.375 C-88.859375 8.537144188434763, -88.859375 -4.300711623130475, -88.859375 -21.375 M-88.859375 21.375 C-88.859375 7.236787872738914, -88.859375 -6.901424254522173, -88.859375 -21.375"/></g><g class="row-rect-even" style=""><path fill="hsl(78.1578947368, 58.4615384615%, 94.5098039216%)" stroke-width="0" stroke="none" d="M-88.859375 21.375 L88.859375 21.375 L88.859375 64.125 L-88.859375 64.125"/><path stroke-dasharray="0 0" fill="none" stroke-width="1.3" stroke="#13540c" d="M-88.859375 21.375 C-49.29842935142513 21.375, -9.737483702850255 21.375, 88.859375 21.375 M-88.859375 21.375 C-47.64193931110925 21.375, -6.424503622218495 21.375, 88.859375 21.375 M88.859375 21.375 C88.859375 34.30768247549823, 88.859375 47.240364950996465, 88.859375 64.125 M88.859375 21.375 C88.859375 36.00293814679067, 88.859375 50.630876293581345, 88.859375 64.125 M88.859375 64.125 C53.143768162767124 64.125, 17.428161325534248 64.125, -88.859375 64.125 M88.859375 64.125 C49.1148712675959 64.125, 9.370367535191804 64.125, -88.859375 64.125 M-88.859375 64.125 C-88.859375 50.845248787861834, -88.859375 37.56549757572367, -88.859375 21.375 M-88.859375 64.125 C-88.859375 52.70956191785038, -88.859375 41.29412383570076, -88.859375 21.375"/></g><g style="" transform="translate(-27.453125, -54.75)" class="label name"><foreignObject height="24" width="54.90625"><div style="display: table-cell; white-space: nowrap; line-height: 1.5; max-width: 151px; text-align: start;" xmlns="http://www.w3.org/1999/xhtml"><span class="nodeLabel"><p>Product</p></span></div></foreignObject></g><g style="" transform="translate(-76.359375, -12)" class="label attribute-type"><foreignObject height="24" width="41.59375"><div style="display: table-cell; white-space: nowrap; line-height: 1.5; max-width: 139px; text-align: start;" xmlns="http://www.w3.org/1999/xhtml"><span class="nodeLabel"><p>String</p></span></div></foreignObject></g><g style="" transform="translate(-9.765625, -12)" class="label attribute-name"><foreignObject height="24" width="29.46875"><div style="display: table-cell; white-space: nowrap; line-height: 1.5; max-width: 129px; text-align: start;" xmlns="http://www.w3.org/1999/xhtml"><span class="nodeLabel"><p>z_id</p></span></div></foreignObject></g><g style="" transform="translate(54.390625, -12)" class="label attribute-keys"><foreignObject height="0" width="0"><div style="display: table-cell; white-space: nowrap; line-height: 1.5; max-width: 100px; text-align: start;" xmlns="http://www.w3.org/1999/xhtml"><span class="nodeLabel"></span></div></foreignObject></g><g style="" transform="translate(54.390625, -12)" class="label attribute-comment"><foreignObject height="24" width="21.96875"><div style="display: table-cell; white-space: nowrap; line-height: 1.5; max-width: 122px; text-align: start;" xmlns="http://www.w3.org/1999/xhtml"><span class="nodeLabel"><p>🗝️</p></span></div></foreignObject></g><g style="" transform="translate(-76.359375, 30.75)" class="label attribute-type"><foreignObject height="24" width="41.59375"><div style="display: table-cell; white-space: nowrap; line-height: 1.5; max-width: 139px; text-align: start;" xmlns="http://www.w3.org/1999/xhtml"><span class="nodeLabel"><p>String</p></span></div></foreignObject></g><g style="" transform="translate(-9.765625, 30.75)" class="label attribute-name"><foreignObject height="24" width="39.15625"><div style="display: table-cell; white-space: nowrap; line-height: 1.5; max-width: 136px; text-align: start;" xmlns="http://www.w3.org/1999/xhtml"><span class="nodeLabel"><p>name</p></span></div></foreignObject></g><g style="" transform="translate(54.390625, 30.75)" class="label attribute-keys"><foreignObject height="0" width="0"><div style="display: table-cell; white-space: nowrap; line-height: 1.5; max-width: 100px; text-align: start;" xmlns="http://www.w3.org/1999/xhtml"><span class="nodeLabel"></span></div></foreignObject></g><g style="" transform="translate(54.390625, 30.75)" class="label attribute-comment"><foreignObject height="0" width="0"><div style="display: table-cell; white-space: nowrap; line-height: 1.5; max-width: 100px; text-align: start;" xmlns="http://www.w3.org/1999/xhtml"><span class="nodeLabel"></span></div></foreignObject></g><g class="divider"><path stroke-dasharray="0 0" fill="none" stroke-width="1.3" stroke="#13540c" d="M-88.859375 -21.375 C-39.533328855041475 -21.375, 9.79271728991705 -21.375, 88.859375 -21.375 M-88.859375 -21.375 C-52.43233279142151 -21.375, -16.005290582843017 -21.375, 88.859375 -21.375"/></g><g class="divider"><path stroke-dasharray="0 0" fill="none" stroke-width="1.3" stroke="#13540c" d="M-22.265625 -21.375 C-22.265625 -3.5932704654449736, -22.265625 14.188459069110053, -22.265625 64.125 M-22.265625 -21.375 C-22.265625 5.308062883968308, -22.265625 31.991125767936616, -22.265625 64.125"/></g><g class="divider"><path stroke-dasharray="0 0" fill="none" stroke-width="1.3" stroke="#13540c" d="M41.890625 -21.375 C41.890625 11.984399040454804, 41.890625 45.34379808090961, 41.890625 64.125 M41.890625 -21.375 C41.890625 8.93865008210718, 41.890625 39.25230016421436, 41.890625 64.125"/></g><g class="divider"><path stroke-dasharray="0 0" fill="none" stroke-width="1.3" stroke="#13540c" d="M-88.859375 -21.375 C-51.96806983649016 -21.375, -15.076764672980318 -21.375, 88.859375 -21.375 M-88.859375 -21.375 C-24.56496114546607 -21.375, 39.72945270906786 -21.375, 88.859375 -21.375"/></g></g><g transform="translate(96.859375, 301.375)" id="entity-Foo-1" class="node default"><g style=""><path fill="#cde498" stroke-width="0" stroke="none" d="M-84.015625 -64.125 L84.015625 -64.125 L84.015625 64.125 L-84.015625 64.125"/><path stroke-dasharray="0 0" fill="none" stroke-width="1.3" stroke="#13540c" d="M-84.015625 -64.125 C-24.727869546434626 -64.125, 34.55988590713075 -64.125, 84.015625 -64.125 M-84.015625 -64.125 C-27.521412763197944 -64.125, 28.972799473604113 -64.125, 84.015625 -64.125 M84.015625 -64.125 C84.015625 -15.066474976569609, 84.015625 33.99205004686078, 84.015625 64.125 M84.015625 -64.125 C84.015625 -15.058019746560213, 84.015625 34.008960506879575, 84.015625 64.125 M84.015625 64.125 C28.290294185411767 64.125, -27.435036629176466 64.125, -84.015625 64.125 M84.015625 64.125 C30.464192161579618 64.125, -23.087240676840764 64.125, -84.015625 64.125 M-84.015625 64.125 C-84.015625 20.490279607321746, -84.015625 -23.144440785356508, -84.015625 -64.125 M-84.015625 64.125 C-84.015625 26.853012160711707, -84.015625 -10.418975678576587, -84.015625 -64.125"/></g><g class="row-rect-odd" style=""><path fill="hsl(78.1578947368, 58.4615384615%, 100%)" stroke-width="0" stroke="none" d="M-84.015625 -21.375 L84.015625 -21.375 L84.015625 21.375 L-84.015625 21.375"/><path stroke-dasharray="0 0" fill="none" stroke-width="1.3" stroke="#13540c" d="M-84.015625 -21.375 C-31.409083092350762 -21.375, 21.197458815298475 -21.375, 84.015625 -21.375 M-84.015625 -21.375 C-27.41930844251879 -21.375, 29.17700811496242 -21.375, 84.015625 -21.375 M84.015625 -21.375 C84.015625 -10.363627232927719, 84.015625 0.6477455341445619, 84.015625 21.375 M84.015625 -21.375 C84.015625 -12.010935541506209, 84.015625 -2.6468710830124174, 84.015625 21.375 M84.015625 21.375 C35.39103855203862 21.375, -13.233547895922754 21.375, -84.015625 21.375 M84.015625 21.375 C25.514146044984628 21.375, -32.987332910030744 21.375, -84.015625 21.375 M-84.015625 21.375 C-84.015625 4.313353723210611, -84.015625 -12.748292553578779, -84.015625 -21.375 M-84.015625 21.375 C-84.015625 4.88984077995886, -84.015625 -11.59531844008228, -84.015625 -21.375"/></g><g class="row-rect-even" style=""><path fill="hsl(78.1578947368, 58.4615384615%, 94.5098039216%)" stroke-width="0" stroke="none" d="M-84.015625 21.375 L84.015625 21.375 L84.015625 64.125 L-84.015625 64.125"/><path stroke-dasharray="0 0" fill="none" stroke-width="1.3" stroke="#13540c" d="M-84.015625 21.375 C-44.774928860295745 21.375, -5.53423272059149 21.375, 84.015625 21.375 M-84.015625 21.375 C-46.440245092483906 21.375, -8.864865184967812 21.375, 84.015625 21.375 M84.015625 21.375 C84.015625 31.172907478058562, 84.015625 40.970814956117124, 84.015625 64.125 M84.015625 21.375 C84.015625 36.271874932868556, 84.015625 51.16874986573711, 84.015625 64.125 M84.015625 64.125 C42.351663128893314 64.125, 0.6877012577866282 64.125, -84.015625 64.125 M84.015625 64.125 C21.80115122371985 64.125, -40.4133225525603 64.125, -84.015625 64.125 M-84.015625 64.125 C-84.015625 52.9540819058979, -84.015625 41.7831638117958, -84.015625 21.375 M-84.015625 64.125 C-84.015625 51.274860835601984, -84.015625 38.42472167120396, -84.015625 21.375"/></g><g style="" transform="translate(-12.7890625, -54.75)" class="label name"><foreignObject height="24" width="25.578125"><div style="display: table-cell; white-space: nowrap; line-height: 1.5; max-width: 126px; text-align: start;" xmlns="http://www.w3.org/1999/xhtml"><span class="nodeLabel"><p>Foo</p></span></div></foreignObject></g><g style="" transform="translate(-71.515625, -12)" class="label attribute-type"><foreignObject height="24" width="41.59375"><div style="display: table-cell; white-space: nowrap; line-height: 1.5; max-width: 139px; text-align: start;" xmlns="http://www.w3.org/1999/xhtml"><span class="nodeLabel"><p>String</p></span></div></foreignObject></g><g style="" transform="translate(-4.921875, -12)" class="label attribute-name"><foreignObject height="24" width="29.46875"><div style="display: table-cell; white-space: nowrap; line-height: 1.5; max-width: 129px; text-align: start;" xmlns="http://www.w3.org/1999/xhtml"><span class="nodeLabel"><p>z_id</p></span></div></foreignObject></g><g style="" transform="translate(49.546875, -12)" class="label attribute-keys"><foreignObject height="0" width="0"><div style="display: table-cell; white-space: nowrap; line-height: 1.5; max-width: 100px; text-align: start;" xmlns="http://www.w3.org/1999/xhtml"><span class="nodeLabel"></span></div></foreignObject></g><g style="" transform="translate(49.546875, -12)" class="label attribute-comment"><foreignObject height="24" width="21.96875"><div style="display: table-cell; white-space: nowrap; line-height: 1.5; max-width: 122px; text-align: start;" xmlns="http://www.w3.org/1999/xhtml"><span class="nodeLabel"><p>🗝️</p></span></div></foreignObject></g><g style="" transform="translate(-71.515625, 30.75)" class="label attribute-type"><foreignObject height="24" width="41.59375"><div style="display: table-cell; white-space: nowrap; line-height: 1.5; max-width: 139px; text-align: start;" xmlns="http://www.w3.org/1999/xhtml"><span class="nodeLabel"><p>String</p></span></div></foreignObject></g><g style="" transform="translate(-4.921875, 30.75)" class="label attribute-name"><foreignObject height="24" width="23.546875"><div style="display: table-cell; white-space: nowrap; line-height: 1.5; max-width: 122px; text-align: start;" xmlns="http://www.w3.org/1999/xhtml"><span class="nodeLabel"><p>bar</p></span></div></foreignObject></g><g style="" transform="translate(49.546875, 30.75)" class="label attribute-keys"><foreignObject height="0" width="0"><div style="display: table-cell; white-space: nowrap; line-height: 1.5; max-width: 100px; text-align: start;" xmlns="http://www.w3.org/1999/xhtml"><span class="nodeLabel"></span></div></foreignObject></g><g style="" transform="translate(49.546875, 30.75)" class="label attribute-comment"><foreignObject height="0" width="0"><div style="display: table-cell; white-space: nowrap; line-height: 1.5; max-width: 100px; text-align: start;" xmlns="http://www.w3.org/1999/xhtml"><span class="nodeLabel"></span></div></foreignObject></g><g class="divider"><path stroke-dasharray="0 0" fill="none" stroke-width="1.3" stroke="#13540c" d="M-84.015625 -21.375 C-46.18692787185398 -21.375, -8.358230743707963 -21.375, 84.015625 -21.375 M-84.015625 -21.375 C-26.486445646807603 -21.375, 31.042733706384794 -21.375, 84.015625 -21.375"/></g><g class="divider"><path stroke-dasharray="0 0" fill="none" stroke-width="1.3" stroke="#13540c" d="M-17.421875 -21.375 C-17.421875 1.8409746537871712, -17.421875 25.056949307574342, -17.421875 64.125 M-17.421875 -21.375 C-17.421875 -0.25894845550246615, -17.421875 20.857103088995068, -17.421875 64.125"/></g><g class="divider"><path stroke-dasharray="0 0" fill="none" stroke-width="1.3" stroke="#13540c" d="M37.046875 -21.375 C37.046875 -1.0726655391638324, 37.046875 19.229668921672335, 37.046875 64.125 M37.046875 -21.375 C37.046875 -2.8106976628419176, 37.046875 15.753604674316165, 37.046875 64.125"/></g><g class="divider"><path stroke-dasharray="0 0" fill="none" stroke-width="1.3" stroke="#13540c" d="M-84.015625 -21.375 C-49.592615422906164 -21.375, -15.169605845812328 -21.375, 84.015625 -21.375 M-84.015625 -21.375 C-40.14011754821425 -21.375, 3.7353899035715017 -21.375, 84.015625 -21.375"/></g></g></g></g></g></svg>