<svg aria-roledescription="er" role="graphics-document document" viewBox="0 0 193.71875 373.5" style="max-width: 193.719px; background-color: white;" class="erDiagram" xmlns:xlink="http://www.w3.org/1999/xlink" xmlns="http://www.w3.org/2000/svg" width="100%" id="my-svg"><style>#my-svg{font-family:"trebuchet ms",verdana,arial,sans-serif;font-size:16px;fill:#000000;}@keyframes edge-animation-frame{from{stroke-dashoffset:0;}}@keyframes dash{to{stroke-dashoffset:0;}}#my-svg .edge-animation-slow{stroke-dasharray:9,5!important;stroke-dashoffset:900;animation:dash 50s linear infinite;stroke-linecap:round;}#my-svg .edge-animation-fast{stroke-dasharray:9,5!important;stroke-dashoffset:900;animation:dash 20s linear infinite;stroke-linecap:round;}#my-svg .error-icon{fill:#552222;}#my-svg .error-text{fill:#552222;stroke:#552222;}#my-svg .edge-thickness-normal{stroke-width:1px;}#my-svg .edge-thickness-thick{stroke-width:3.5px;}#my-svg .edge-pattern-solid{stroke-dasharray:0;}#my-svg .edge-thickness-invisible{stroke-width:0;fill:none;}#my-svg .edge-pattern-dashed{stroke-dasharray:3;}#my-svg .edge-pattern-dotted{stroke-dasharray:2;}#my-svg .marker{fill:#000000;stroke:#000000;}#my-svg .marker.cross{stroke:#000000;}#my-svg svg{font-family:"trebuchet ms",verdana,arial,sans-serif;font-size:16px;}#my-svg p{margin:0;}#my-svg .entityBox{fill:#cde498;stroke:#13540c;}#my-svg .relationshipLabelBox{fill:hsl(78.1578947368, 58.4615384615%, 84.5098039216%);opacity:0.7;background-color:hsl(78.1578947368, 58.4615384615%, 84.5098039216%);}#my-svg .relationshipLabelBox rect{opacity:0.5;}#my-svg .labelBkg{background-color:rgba(224.6153846155, 238.5923076923, 192.4076923078, 0.5);}#my-svg .edgeLabel .label{fill:#13540c;font-size:14px;}#my-svg .label{font-family:"trebuchet ms",verdana,arial,sans-serif;color:#000000;}#my-svg .edge-pattern-dashed{stroke-dasharray:8,8;}#my-svg .node rect,#my-svg .node circle,#my-svg .node ellipse,#my-svg .node polygon{fill:#cde498;stroke:#13540c;stroke-width:1px;}#my-svg .relationshipLine{stroke:#000000;stroke-width:1;fill:none;}#my-svg .marker{fill:none!important;stroke:#000000!important;stroke-width:1;}#my-svg :root{--mermaid-font-family:"trebuchet ms",verdana,arial,sans-serif;}</style><g><defs><marker orient="auto" markerHeight="18" markerWidth="18" refY="9" refX="0" class="marker onlyOne er" id="my-svg_er-onlyOneStart"><path d="M9,0 L9,18 M15,0 L15,18"/></marker></defs><defs><marker orient="auto" markerHeight="18" markerWidth="18" refY="9" refX="18" class="marker onlyOne er" id="my-svg_er-onlyOneEnd"><path d="M3,0 L3,18 M9,0 L9,18"/></marker></defs><defs><marker orient="auto" markerHeight="18" markerWidth="30" refY="9" refX="0" class="marker zeroOrOne er" id="my-svg_er-zeroOrOneStart"><circle r="6" cy="9" cx="21" fill="white"/><path d="M9,0 L9,18"/></marker></defs><defs><marker orient="auto" markerHeight="18" markerWidth="30" refY="9" refX="30" class="marker zeroOrOne er" id="my-svg_er-zeroOrOneEnd"><circle r="6" cy="9" cx="9" fill="white"/><path d="M21,0 L21,18"/></marker></defs><defs><marker orient="auto" markerHeight="36" markerWidth="45" refY="18" refX="18" class="marker oneOrMore er" id="my-svg_er-oneOrMoreStart"><path d="M0,18 Q 18,0 36,18 Q 18,36 0,18 M42,9 L42,27"/></marker></defs><defs><marker orient="auto" markerHeight="36" markerWidth="45" refY="18" refX="27" class="marker oneOrMore er" id="my-svg_er-oneOrMoreEnd"><path d="M3,9 L3,27 M9,18 Q27,0 45,18 Q27,36 9,18"/></marker></defs><defs><marker orient="auto" markerHeight="36" markerWidth="57" refY="18" refX="18" class="marker zeroOrMore er" id="my-svg_er-zeroOrMoreStart"><circle r="6" cy="18" cx="48" fill="white"/><path d="M0,18 Q18,0 36,18 Q18,36 0,18"/></marker></defs><defs><marker orient="auto" markerHeight="36" markerWidth="57" refY="18" refX="39" class="marker zeroOrMore er" id="my-svg_er-zeroOrMoreEnd"><circle r="6" cy="18" cx="9" fill="white"/><path d="M21,18 Q39,0 57,18 Q39,36 21,18"/></marker></defs><g class="root"><g class="clusters"/><g class="edgePaths"><path marker-end="url(#my-svg_er-onlyOneEnd)" marker-start="url(#my-svg_er-zeroOrMoreStart)" style="" class="edge-thickness-normal edge-pattern-solid relationshipLine" id="id_entity-Product-0_entity-Foo-1_0" d="M96.859,136.25L96.859,144.667C96.859,153.083,96.859,169.917,96.859,186.75C96.859,203.583,96.859,220.417,96.859,228.833L96.859,237.25"/></g><g class="edgeLabels"><g transform="translate(96.859375, 186.75)" class="edgeLabel"><g transform="translate(-10.1015625, -10.5)" class="label"><foreignObject height="21" width="20.203125"><div style="display: table-cell; white-space: nowrap; line-height: 1.5; max-width: 200px; text-align: center;" class="labelBkg" xmlns="http://www.w3.org/1999/xhtml"><span class="edgeLabel"><p>foo</p></span></div></foreignObject></g></g></g><g class="nodes"><g transform="translate(96.859375, 72.125)" id="entity-Product-0" class="node default"><g style=""><path fill="#cde498" stroke-width="0" stroke="none" d="M-88.859375 -64.125 L88.859375 -64.125 L88.859375 64.125 L-88.859375 64.125"/><path stroke-dasharray="0 0" fill="none" stroke-width="1.3" stroke="#13540c" d="M-88.859375 -64.125 C-46.539622858445725 -64.125, -4.2198707168914495 -64.125, 88.859375 -64.125 M-88.859375 -64.125 C-50.83017205902814 -64.125, -12.800969118056287 -64.125, 88.859375 -64.125 M88.859375 -64.125 C88.859375 -18.35306468579042, 88.859375 27.418870628419157, 88.859375 64.125 M88.859375 -64.125 C88.859375 -22.666262020647245, 88.859375 18.79247595870551, 88.859375 64.125 M88.859375 64.125 C17.96028538824082 64.125, -52.93880422351836 64.125, -88.859375 64.125 M88.859375 64.125 C30.905816352142935 64.125, -27.04774229571413 64.125, -88.859375 64.125 M-88.859375 64.125 C-88.859375 22.087605038796866, -88.859375 -19.949789922406268, -88.859375 -64.125 M-88.859375 64.125 C-88.859375 32.03150498176243, -88.859375 -0.061990036475137344, -88.859375 -64.125"/></g><g class="row-rect-odd" style=""><path fill="hsl(78.1578947368, 58.4615384615%, 100%)" stroke-width="0" stroke="none" d="M-88.859375 -21.375 L88.859375 -21.375 L88.859375 21.375 L-88.859375 21.375"/><path stroke-dasharray="0 0" fill="none" stroke-width="1.3" stroke="#13540c" d="M-88.859375 -21.375 C-42.673129372320744 -21.375, 3.5131162553585114 -21.375, 88.859375 -21.375 M-88.859375 -21.375 C-47.617410555006984 -21.375, -6.375446110013968 -21.375, 88.859375 -21.375 M88.859375 -21.375 C88.859375 -6.9763122139159055, 88.859375 7.422375572168189, 88.859375 21.375 M88.859375 -21.375 C88.859375 -6.83195537501364, 88.859375 7.711089249972719, 88.859375 21.375 M88.859375 21.375 C31.418784702060655 21.375, -26.02180559587869 21.375, -88.859375 21.375 M88.859375 21.375 C38.20667147713674 21.375, -12.446032045726525 21.375, -88.859375 21.375 M-88.859375 21.375 C-88.859375 11.442511669424979, -88.859375 1.5100233388499582, -88.859375 -21.375 M-88.859375 21.375 C-88.859375 7.404864821867832, -88.859375 -6.565270356264335, -88.859375 -21.375"/></g><g class="row-rect-even" style=""><path fill="hsl(78.1578947368, 58.4615384615%, 94.5098039216%)" stroke-width="0" stroke="none" d="M-88.859375 21.375 L88.859375 21.375 L88.859375 64.125 L-88.859375 64.125"/><path stroke-dasharray="0 0" fill="none" stroke-width="1.3" stroke="#13540c" d="M-88.859375 21.375 C-26.344428231781663 21.375, 36.170518536436674 21.375, 88.859375 21.375 M-88.859375 21.375 C-43.39780530766887 21.375, 2.0637643846622638 21.375, 88.859375 21.375 M88.859375 21.375 C88.859375 34.24049182455073, 88.859375 47.105983649101454, 88.859375 64.125 M88.859375 21.375 C88.859375 37.9214864450509, 88.859375 54.467972890101805, 88.859375 64.125 M88.859375 64.125 C29.43407409683666 64.125, -29.99122680632668 64.125, -88.859375 64.125 M88.859375 64.125 C27.123537234484353 64.125, -34.612300531031295 64.125, -88.859375 64.125 M-88.859375 64.125 C-88.859375 47.22128214848477, -88.859375 30.317564296969536, -88.859375 21.375 M-88.859375 64.125 C-88.859375 47.84513033968224, -88.859375 31.565260679364485, -88.859375 21.375"/></g><g style="" transform="translate(-27.453125, -54.75)" class="label name"><foreignObject height="24" width="54.90625"><div style="display: table-cell; white-space: nowrap; line-height: 1.5; max-width: 151px; text-align: start;" xmlns="http://www.w3.org/1999/xhtml"><span class="nodeLabel"><p>Product</p></span></div></foreignObject></g><g style="" transform="translate(-76.359375, -12)" class="label attribute-type"><foreignObject height="24" width="41.59375"><div style="display: table-cell; white-space: nowrap; line-height: 1.5; max-width: 139px; text-align: start;" xmlns="http://www.w3.org/1999/xhtml"><span class="nodeLabel"><p>String</p></span></div></foreignObject></g><g style="" transform="translate(-9.765625, -12)" class="label attribute-name"><foreignObject height="24" width="13.484375"><div style="display: table-cell; white-space: nowrap; line-height: 1.5; max-width: 113px; text-align: start;" xmlns="http://www.w3.org/1999/xhtml"><span class="nodeLabel"><p>id</p></span></div></foreignObject></g><g style="" transform="translate(54.390625, -12)" class="label attribute-keys"><foreignObject height="0" width="0"><div style="display: table-cell; white-space: nowrap; line-height: 1.5; max-width: 100px; text-align: start;" xmlns="http://www.w3.org/1999/xhtml"><span class="nodeLabel"></span></div></foreignObject></g><g style="" transform="translate(54.390625, -12)" class="label attribute-comment"><foreignObject height="24" width="21.96875"><div style="display: table-cell; white-space: nowrap; line-height: 1.5; max-width: 122px; text-align: start;" xmlns="http://www.w3.org/1999/xhtml"><span class="nodeLabel"><p>🗝️</p></span></div></foreignObject></g><g style="" transform="translate(-76.359375, 30.75)" class="label attribute-type"><foreignObject height="24" width="41.59375"><div style="display: table-cell; white-space: nowrap; line-height: 1.5; max-width: 139px; text-align: start;" xmlns="http://www.w3.org/1999/xhtml"><span class="nodeLabel"><p>String</p></span></div></foreignObject></g><g style="" transform="translate(-9.765625, 30.75)" class="label attribute-name"><foreignObject height="24" width="39.15625"><div style="display: table-cell; white-space: nowrap; line-height: 1.5; max-width: 136px; text-align: start;" xmlns="http://www.w3.org/1999/xhtml"><span class="nodeLabel"><p>name</p></span></div></foreignObject></g><g style="" transform="translate(54.390625, 30.75)" class="label attribute-keys"><foreignObject height="0" width="0"><div style="display: table-cell; white-space: nowrap; line-height: 1.5; max-width: 100px; text-align: start;" xmlns="http://www.w3.org/1999/xhtml"><span class="nodeLabel"></span></div></foreignObject></g><g style="" transform="translate(54.390625, 30.75)" class="label attribute-comment"><foreignObject height="0" width="0"><div style="display: table-cell; white-space: nowrap; line-height: 1.5; max-width: 100px; text-align: start;" xmlns="http://www.w3.org/1999/xhtml"><span class="nodeLabel"></span></div></foreignObject></g><g class="divider"><path stroke-dasharray="0 0" fill="none" stroke-width="1.3" stroke="#13540c" d="M-88.859375 -21.375 C-43.37135779145264 -21.375, 2.1166594170947235 -21.375, 88.859375 -21.375 M-88.859375 -21.375 C-45.5772662521523 -21.375, -2.2951575043045978 -21.375, 88.859375 -21.375"/></g><g class="divider"><path stroke-dasharray="0 0" fill="none" stroke-width="1.3" stroke="#13540c" d="M-22.265625 -21.375 C-22.265625 7.268373075573045, -22.265625 35.91174615114609, -22.265625 64.125 M-22.265625 -21.375 C-22.265625 0.708012934756308, -22.265625 22.791025869512616, -22.265625 64.125"/></g><g class="divider"><path stroke-dasharray="0 0" fill="none" stroke-width="1.3" stroke="#13540c" d="M41.890625 -21.375 C41.890625 12.467705788574015, 41.890625 46.31041157714803, 41.890625 64.125 M41.890625 -21.375 C41.890625 12.344404276170792, 41.890625 46.063808552341584, 41.890625 64.125"/></g><g class="divider"><path stroke-dasharray="0 0" fill="none" stroke-width="1.3" stroke="#13540c" d="M-88.859375 -21.375 C-21.092435884197727 -21.375, 46.67450323160455 -21.375, 88.859375 -21.375 M-88.859375 -21.375 C-33.58249805253835 -21.375, 21.694378894923304 -21.375, 88.859375 -21.375"/></g></g><g transform="translate(96.859375, 301.375)" id="entity-Foo-1" class="node default"><g style=""><path fill="#cde498" stroke-width="0" stroke="none" d="M-81.0546875 -64.125 L81.0546875 -64.125 L81.0546875 64.125 L-81.0546875 64.125"/><path stroke-dasharray="0 0" fill="none" stroke-width="1.3" stroke="#13540c" d="M-81.0546875 -64.125 C-18.707126185064475 -64.125, 43.64043512987105 -64.125, 81.0546875 -64.125 M-81.0546875 -64.125 C-17.764456455992494 -64.125, 45.52577458801501 -64.125, 81.0546875 -64.125 M81.0546875 -64.125 C81.0546875 -38.29407884760694, 81.0546875 -12.46315769521388, 81.0546875 64.125 M81.0546875 -64.125 C81.0546875 -34.557694900470295, 81.0546875 -4.990389800940591, 81.0546875 64.125 M81.0546875 64.125 C29.286444540688613 64.125, -22.481798418622773 64.125, -81.0546875 64.125 M81.0546875 64.125 C40.52652298261374 64.125, -0.0016415347725171614 64.125, -81.0546875 64.125 M-81.0546875 64.125 C-81.0546875 35.47427576229402, -81.0546875 6.823551524588041, -81.0546875 -64.125 M-81.0546875 64.125 C-81.0546875 15.135596434706557, -81.0546875 -33.85380713058689, -81.0546875 -64.125"/></g><g class="row-rect-odd" style=""><path fill="hsl(78.1578947368, 58.4615384615%, 100%)" stroke-width="0" stroke="none" d="M-81.0546875 -21.375 L81.0546875 -21.375 L81.0546875 21.375 L-81.0546875 21.375"/><path stroke-dasharray="0 0" fill="none" stroke-width="1.3" stroke="#13540c" d="M-81.0546875 -21.375 C-40.87406519092779 -21.375, -0.6934428818555745 -21.375, 81.0546875 -21.375 M-81.0546875 -21.375 C-32.34986462800452 -21.375, 16.354958243990964 -21.375, 81.0546875 -21.375 M81.0546875 -21.375 C81.0546875 -4.902507194752957, 81.0546875 11.569985610494086, 81.0546875 21.375 M81.0546875 -21.375 C81.0546875 -11.544458573394158, 81.0546875 -1.7139171467883152, 81.0546875 21.375 M81.0546875 21.375 C23.725351653739423 21.375, -33.60398419252115 21.375, -81.0546875 21.375 M81.0546875 21.375 C47.802371113882664 21.375, 14.550054727765328 21.375, -81.0546875 21.375 M-81.0546875 21.375 C-81.0546875 8.607966848962615, -81.0546875 -4.15906630207477, -81.0546875 -21.375 M-81.0546875 21.375 C-81.0546875 11.065758447618917, -81.0546875 0.7565168952378336, -81.0546875 -21.375"/></g><g class="row-rect-even" style=""><path fill="hsl(78.1578947368, 58.4615384615%, 94.5098039216%)" stroke-width="0" stroke="none" d="M-81.0546875 21.375 L81.0546875 21.375 L81.0546875 64.125 L-81.0546875 64.125"/><path stroke-dasharray="0 0" fill="none" stroke-width="1.3" stroke="#13540c" d="M-81.0546875 21.375 C-20.123889698768487 21.375, 40.80690810246303 21.375, 81.0546875 21.375 M-81.0546875 21.375 C-35.21793353364609 21.375, 10.618820432707821 21.375, 81.0546875 21.375 M81.0546875 21.375 C81.0546875 37.46011957888242, 81.0546875 53.54523915776484, 81.0546875 64.125 M81.0546875 21.375 C81.0546875 38.32922751255224, 81.0546875 55.28345502510448, 81.0546875 64.125 M81.0546875 64.125 C38.797595200426116 64.125, -3.459497099147768 64.125, -81.0546875 64.125 M81.0546875 64.125 C45.078195893717876 64.125, 9.101704287435751 64.125, -81.0546875 64.125 M-81.0546875 64.125 C-81.0546875 54.65527912978848, -81.0546875 45.185558259576965, -81.0546875 21.375 M-81.0546875 64.125 C-81.0546875 48.900207211276005, -81.0546875 33.67541442255201, -81.0546875 21.375"/></g><g style="" transform="translate(-12.7890625, -54.75)" class="label name"><foreignObject height="24" width="25.578125"><div style="display: table-cell; white-space: nowrap; line-height: 1.5; max-width: 126px; text-align: start;" xmlns="http://www.w3.org/1999/xhtml"><span class="nodeLabel"><p>Foo</p></span></div></foreignObject></g><g style="" transform="translate(-68.5546875, -12)" class="label attribute-type"><foreignObject height="24" width="41.59375"><div style="display: table-cell; white-space: nowrap; line-height: 1.5; max-width: 139px; text-align: start;" xmlns="http://www.w3.org/1999/xhtml"><span class="nodeLabel"><p>String</p></span></div></foreignObject></g><g style="" transform="translate(-1.9609375, -12)" class="label attribute-name"><foreignObject height="24" width="13.484375"><div style="display: table-cell; white-space: nowrap; line-height: 1.5; max-width: 113px; text-align: start;" xmlns="http://www.w3.org/1999/xhtml"><span class="nodeLabel"><p>id</p></span></div></foreignObject></g><g style="" transform="translate(46.5859375, -12)" class="label attribute-keys"><foreignObject height="0" width="0"><div style="display: table-cell; white-space: nowrap; line-height: 1.5; max-width: 100px; text-align: start;" xmlns="http://www.w3.org/1999/xhtml"><span class="nodeLabel"></span></div></foreignObject></g><g style="" transform="translate(46.5859375, -12)" class="label attribute-comment"><foreignObject height="24" width="21.96875"><div style="display: table-cell; white-space: nowrap; line-height: 1.5; max-width: 122px; text-align: start;" xmlns="http://www.w3.org/1999/xhtml"><span class="nodeLabel"><p>🗝️</p></span></div></foreignObject></g><g style="" transform="translate(-68.5546875, 30.75)" class="label attribute-type"><foreignObject height="24" width="41.59375"><div style="display: table-cell; white-space: nowrap; line-height: 1.5; max-width: 139px; text-align: start;" xmlns="http://www.w3.org/1999/xhtml"><span class="nodeLabel"><p>String</p></span></div></foreignObject></g><g style="" transform="translate(-1.9609375, 30.75)" class="label attribute-name"><foreignObject height="24" width="23.546875"><div style="display: table-cell; white-space: nowrap; line-height: 1.5; max-width: 122px; text-align: start;" xmlns="http://www.w3.org/1999/xhtml"><span class="nodeLabel"><p>bar</p></span></div></foreignObject></g><g style="" transform="translate(46.5859375, 30.75)" class="label attribute-keys"><foreignObject height="0" width="0"><div style="display: table-cell; white-space: nowrap; line-height: 1.5; max-width: 100px; text-align: start;" xmlns="http://www.w3.org/1999/xhtml"><span class="nodeLabel"></span></div></foreignObject></g><g style="" transform="translate(46.5859375, 30.75)" class="label attribute-comment"><foreignObject height="0" width="0"><div style="display: table-cell; white-space: nowrap; line-height: 1.5; max-width: 100px; text-align: start;" xmlns="http://www.w3.org/1999/xhtml"><span class="nodeLabel"></span></div></foreignObject></g><g class="divider"><path stroke-dasharray="0 0" fill="none" stroke-width="1.3" stroke="#13540c" d="M-81.0546875 -21.375 C-22.76945517120788 -21.375, 35.51577715758424 -21.375, 81.0546875 -21.375 M-81.0546875 -21.375 C-18.523503884670568 -21.375, 44.007679730658865 -21.375, 81.0546875 -21.375"/></g><g class="divider"><path stroke-dasharray="0 0" fill="none" stroke-width="1.3" stroke="#13540c" d="M-14.4609375 -21.375 C-14.4609375 2.39826277237173, -14.4609375 26.17152554474346, -14.4609375 64.125 M-14.4609375 -21.375 C-14.4609375 10.315382552924707, -14.4609375 42.00576510584941, -14.4609375 64.125"/></g><g class="divider"><path stroke-dasharray="0 0" fill="none" stroke-width="1.3" stroke="#13540c" d="M34.0859375 -21.375 C34.0859375 8.883298536730774, 34.0859375 39.14159707346155, 34.0859375 64.125 M34.0859375 -21.375 C34.0859375 -0.8112329212815084, 34.0859375 19.752534157436983, 34.0859375 64.125"/></g><g class="divider"><path stroke-dasharray="0 0" fill="none" stroke-width="1.3" stroke="#13540c" d="M-81.0546875 -21.375 C-19.612421963828716 -21.375, 41.82984357234257 -21.375, 81.0546875 -21.375 M-81.0546875 -21.375 C-48.38475845792358 -21.375, -15.714829415847163 -21.375, 81.0546875 -21.375"/></g></g></g></g></g></svg>